{"glyphs":{"0":{"ha":688,"x_min":0,"x_max":0,"o":""},"1":{"ha":688,"x_min":0,"x_max":0,"o":""},"2":{"ha":688,"x_min":0,"x_max":0,"o":""},"3":{"ha":688,"x_min":0,"x_max":0,"o":""},"4":{"ha":688,"x_min":0,"x_max":0,"o":""},"5":{"ha":688,"x_min":0,"x_max":0,"o":""},"6":{"ha":688,"x_min":0,"x_max":0,"o":""},"7":{"ha":688,"x_min":0,"x_max":0,"o":""},"8":{"ha":688,"x_min":0,"x_max":0,"o":""},"9":{"ha":688,"x_min":0,"x_max":0,"o":""}," ":{"ha":345,"x_min":0,"x_max":0,"o":""},"!":{"ha":456,"x_min":0,"x_max":0,"o":""},"\"":{"ha":456,"x_min":0,"x_max":0,"o":""},"#":{"ha":906,"x_min":0,"x_max":0,"o":""},"$":{"ha":688,"x_min":0,"x_max":0,"o":""},"%":{"ha":1092,"x_min":0,"x_max":0,"o":""},"&":{"ha":1141,"x_min":0,"x_max":0,"o":""},"'":{"ha":235,"x_min":0,"x_max":0,"o":""},"(":{"ha":514,"x_min":0,"x_max":0,"o":""},")":{"ha":514,"x_min":0,"x_max":0,"o":""},"*":{"ha":694,"x_min":0,"x_max":0,"o":""},"+":{"ha":688,"x_min":0,"x_max":0,"o":""},",":{"ha":378,"x_min":0,"x_max":0,"o":""},"-":{"ha":454,"x_min":0,"x_max":0,"o":""},".":{"ha":378,"x_min":0,"x_max":0,"o":""},"/":{"ha":386,"x_min":0,"x_max":0,"o":""},":":{"ha":378,"x_min":0,"x_max":0,"o":""},";":{"ha":378,"x_min":0,"x_max":0,"o":""},"<":{"ha":688,"x_min":0,"x_max":0,"o":""},"=":{"ha":688,"x_min":0,"x_max":0,"o":""},">":{"ha":688,"x_min":0,"x_max":0,"o":""},"?":{"ha":507,"x_min":0,"x_max":0,"o":""},"@":{"ha":1369,"x_min":0,"x_max":0,"o":""},"A":{"ha":1635,"x_min":0,"x_max":1576,"o":"m 610 1573 l 637 1573 q 779 1476 734 1573 l 779 1473 l 803 1514 q 922 1573 856 1573 l 952 1573 q 1185 1416 1094 1573 q 1213 1278 1213 1346 l 1213 1259 q 1210 1213 1213 1244 l 1242 1215 l 1294 1215 q 1554 1050 1463 1215 q 1576 939 1576 987 q 1473 787 1576 827 l 1516 760 q 1576 624 1576 712 q 1427 385 1576 477 q 1278 353 1356 353 l 1270 353 q 1210 355 1251 353 q 1213 315 1213 328 l 1213 293 q 1034 16 1213 100 q 949 0 987 0 l 925 0 q 781 100 827 0 l 779 100 q 716 22 770 61 q 637 0 673 0 l 613 0 q 377 157 466 0 q 350 288 350 219 l 350 342 l 353 355 l 326 353 l 290 353 q 19 526 105 353 q 0 624 0 576 l 0 629 q 103 784 0 742 l 103 787 q 0 939 0 825 l 0 944 q 76 1128 0 1048 q 288 1215 163 1215 l 353 1215 l 350 1234 l 350 1294 q 521 1554 350 1468 q 610 1573 569 1573 m 404 1272 q 420 1202 404 1202 q 678 1044 572 1162 q 654 1123 678 1048 l 654 1126 l 656 1126 q 727 982 715 992 l 697 1139 l 697 1142 l 700 1142 l 749 985 l 751 985 l 751 993 l 743 1139 l 743 1147 l 746 1147 l 776 979 l 779 979 l 787 1150 l 789 1150 q 800 979 792 1138 l 803 979 l 833 1150 l 836 1150 l 836 1142 q 825 979 827 997 l 825 977 l 827 977 l 879 1145 l 882 1145 l 882 1142 q 852 987 857 1006 l 854 987 q 920 1120 879 1027 l 922 1120 l 922 1118 q 901 1050 917 1095 l 903 1050 q 1063 1166 1006 1152 q 1150 1202 1080 1179 q 1156 1261 1156 1242 l 1156 1280 q 1012 1503 1156 1432 q 939 1519 979 1516 q 830 1419 830 1503 q 846 1392 830 1402 q 871 1430 846 1422 l 887 1430 q 928 1383 922 1430 q 871 1326 917 1326 l 860 1326 q 779 1378 813 1326 q 700 1326 756 1326 l 689 1326 q 635 1389 640 1326 q 670 1430 642 1430 l 686 1430 q 716 1392 712 1430 q 732 1424 725 1392 q 656 1514 732 1480 l 624 1519 q 445 1416 522 1519 q 404 1272 404 1350 m 57 949 l 57 936 q 130 838 57 866 q 152 833 147 833 q 182 849 182 839 q 144 882 144 853 l 144 887 q 190 930 144 926 q 250 868 242 930 l 250 865 q 195 787 250 812 q 250 700 250 754 q 195 640 241 640 l 179 640 q 144 681 149 640 l 144 684 q 184 719 144 719 q 149 735 174 735 q 60 656 90 735 q 57 629 57 642 l 57 618 q 176 437 57 517 q 290 410 239 410 l 307 410 q 600 532 464 410 l 662 629 q 543 518 656 629 l 537 515 l 537 518 l 643 646 l 643 648 l 513 553 l 510 553 l 627 667 q 480 589 503 599 q 616 686 610 686 l 616 689 l 613 689 q 456 627 459 627 l 453 627 l 453 629 l 602 708 l 602 711 l 600 711 l 439 670 l 437 670 l 437 673 l 594 732 l 594 735 l 591 735 q 437 716 448 716 l 431 716 l 431 719 l 589 757 l 589 760 l 420 760 l 420 762 l 589 784 l 589 787 l 418 806 l 418 808 l 594 808 l 594 811 l 423 852 l 423 854 l 429 854 l 594 833 l 597 833 l 597 836 l 439 895 l 439 898 l 445 898 l 602 857 l 605 857 l 605 860 l 461 936 l 461 939 l 464 939 q 616 879 473 937 l 616 882 q 477 982 508 957 l 480 982 l 629 901 l 629 903 q 507 1017 624 903 l 510 1017 l 646 920 l 646 922 q 543 1044 641 924 l 543 1047 q 659 939 549 1045 l 665 936 l 665 939 q 583 1055 597 1041 q 298 1161 442 1161 q 71 1015 143 1161 q 57 949 57 975 m 914 936 l 917 936 q 1036 1050 918 940 l 1039 1050 l 933 920 l 936 920 q 1072 1020 943 926 l 1074 1020 l 949 901 q 1096 979 1092 979 l 963 879 q 1120 941 1117 941 l 1123 941 l 1123 939 l 974 860 l 974 857 l 977 857 q 1137 898 1066 882 l 1139 898 l 1139 895 q 982 836 1135 895 l 982 833 l 1150 854 l 1153 854 l 1153 852 q 985 811 989 811 l 985 808 l 1161 808 l 1161 806 l 990 787 l 990 784 l 1158 762 l 1158 760 l 990 760 l 990 757 l 1147 719 l 1147 716 l 1139 716 l 985 735 l 982 735 l 982 732 l 1142 673 l 1142 670 l 1137 670 l 979 711 l 977 711 l 977 708 q 1123 627 1120 632 l 1120 627 l 966 689 l 963 689 l 963 686 q 1093 591 1075 610 l 1090 591 l 947 670 l 947 667 q 1069 553 953 667 l 1066 553 q 933 648 936 648 l 933 646 q 1036 524 940 642 l 1036 521 l 914 632 l 914 629 q 993 515 989 515 q 1270 410 1126 410 l 1280 410 q 1511 572 1446 410 q 1519 629 1519 606 q 1435 735 1519 707 l 1421 735 q 1392 719 1402 735 q 1432 681 1432 719 q 1392 640 1426 640 l 1378 640 q 1326 697 1335 640 l 1326 703 q 1378 781 1326 759 l 1378 787 q 1326 871 1326 810 q 1386 930 1333 930 q 1432 887 1432 926 q 1392 849 1432 849 q 1424 833 1407 833 q 1519 947 1519 851 q 1394 1134 1519 1056 q 1275 1161 1333 1161 q 979 1042 1119 1161 q 914 936 968 1019 m 922 1128 l 925 1128 l 925 1120 l 922 1120 l 922 1128 m 1096 982 l 1101 982 l 1101 979 l 1096 979 l 1096 982 m 456 941 l 461 941 l 461 939 l 456 939 l 456 941 m 656 789 l 659 784 q 656 776 656 779 q 705 681 656 732 q 789 651 754 651 q 906 724 859 651 q 922 784 918 745 q 817 914 922 876 q 787 917 805 914 q 662 819 702 917 q 656 789 656 794 m 423 716 l 431 716 l 431 713 l 423 713 l 423 716 m 1147 716 l 1153 716 l 1153 713 l 1147 713 l 1147 716 m 825 591 q 836 426 827 574 l 836 418 l 833 418 l 803 589 l 800 589 q 789 418 792 430 l 787 418 l 779 589 l 776 589 q 746 420 746 430 l 743 420 l 743 431 l 751 581 l 751 586 l 749 586 l 700 426 l 697 426 l 697 431 l 727 586 l 727 589 l 724 589 q 656 442 656 448 l 654 442 l 654 445 l 678 524 q 613 458 614 465 l 608 461 q 412 366 523 391 q 404 301 408 345 q 524 84 404 157 q 613 57 570 57 l 632 57 q 730 136 701 57 l 732 155 q 716 182 723 182 q 681 144 716 144 l 675 144 q 635 190 635 144 q 689 247 644 247 l 703 247 q 779 195 755 247 q 852 247 816 247 l 873 247 q 928 187 918 247 q 890 144 918 144 l 876 144 q 846 182 846 144 q 830 155 830 171 l 830 146 q 860 84 830 121 q 930 57 897 57 l 949 57 q 1112 152 1037 57 q 1156 293 1156 216 l 1156 312 q 1142 372 1156 372 q 901 521 1029 393 l 901 518 q 925 445 903 514 l 925 442 l 922 442 q 854 583 884 530 l 852 583 l 882 429 l 882 426 l 879 426 l 827 591 l 825 591 m 1093 591 l 1096 591 q 1101 586 1101 591 l 1099 586 q 1093 591 1093 586 z "},"B":{"ha":1463,"x_min":0,"x_max":1443,"o":"m 616 1519 l 632 1519 q 860 1459 736 1519 q 960 1364 922 1431 l 968 1337 l 971 1337 q 1074 1402 1041 1388 l 1074 1400 q 1004 1042 1074 1306 l 968 952 q 1185 990 1072 990 q 1443 952 1299 990 l 1443 949 q 1264 822 1325 856 q 1337 724 1321 779 q 1345 656 1345 677 l 1345 632 q 1308 488 1345 563 q 1386 369 1370 410 l 1383 369 q 1234 391 1377 369 q 1145 309 1208 357 q 1009 260 1075 260 q 974 263 1008 260 l 974 260 q 939 0 974 144 l 933 0 q 817 163 817 156 q 694 393 745 270 l 692 393 q 437 79 646 293 l 393 41 l 391 41 q 385 138 385 81 l 385 203 q 388 250 385 218 l 385 250 q 309 231 349 231 q 127 320 233 231 q 41 469 61 401 q 0 472 34 469 q 30 507 12 492 q 8 651 8 595 q 73 798 8 736 q 212 860 124 842 q 225 865 225 860 q 30 1053 193 880 l 27 1058 l 30 1058 q 152 1063 119 1063 q 483 990 342 1063 l 483 993 q 345 1313 345 1182 q 551 1514 345 1455 q 616 1519 585 1519 m 486 1430 q 659 1234 631 1291 q 738 1069 720 1137 l 741 1069 q 863 1245 760 1131 l 920 1297 q 846 1402 920 1350 q 637 1462 723 1462 l 608 1462 q 486 1430 554 1462 m 401 1308 q 464 1126 401 1243 l 467 1126 l 467 1128 q 456 1313 456 1228 l 456 1405 l 453 1405 q 401 1308 401 1369 m 510 1324 l 513 1318 l 513 1299 q 610 857 513 1024 q 648 817 641 817 q 684 841 684 830 q 697 928 697 886 l 697 960 q 562 1270 697 1099 q 510 1324 514 1324 m 754 879 q 773 814 754 814 l 776 814 q 879 906 850 892 q 971 1137 926 981 q 1001 1286 990 1216 q 754 879 754 1102 m 155 1006 q 401 808 316 850 q 480 768 418 795 l 494 770 q 608 757 556 770 l 610 770 q 526 892 559 817 q 155 1006 381 1006 m 811 762 q 825 730 817 730 q 854 727 843 727 l 879 727 q 1310 920 1027 727 l 1310 922 q 1180 933 1242 933 q 811 762 941 933 m 65 654 q 76 562 68 599 q 334 735 242 712 q 380 751 334 740 q 285 811 294 811 q 114 757 191 811 q 65 654 65 709 m 1202 784 q 1055 711 1155 751 l 1053 711 l 1053 705 q 1267 543 1128 685 l 1270 543 q 1291 643 1291 610 q 1256 754 1291 707 q 1202 784 1216 784 m 659 727 q 708 678 671 678 l 711 678 q 760 727 751 678 q 708 779 749 779 q 659 730 659 766 l 659 727 m 125 524 q 586 621 409 524 q 627 659 627 654 q 591 703 608 703 q 502 713 543 713 q 125 524 314 713 m 873 670 l 854 670 q 803 675 836 670 l 800 670 q 892 564 873 602 q 1270 442 1028 486 l 1270 445 q 1044 648 1161 589 q 955 678 975 678 q 873 670 907 670 m 711 578 q 906 136 711 413 l 909 136 q 917 252 917 212 l 917 266 q 822 564 917 439 q 751 629 766 629 l 716 618 q 711 578 713 616 m 439 165 q 646 429 607 342 q 667 475 667 463 q 656 562 656 533 l 656 602 q 553 540 608 564 q 439 165 439 388 m 138 469 l 103 469 l 103 467 q 250 307 156 347 q 315 288 293 288 q 399 328 347 288 q 448 480 415 408 q 461 507 453 482 l 458 507 q 138 469 311 469 m 936 477 q 971 326 971 377 q 1017 317 993 317 q 1166 404 1074 317 q 936 477 1053 429 z "},"C":{"ha":1579,"x_min":0,"x_max":1522,"o":"m 583 1519 l 586 1519 q 735 1351 696 1417 q 765 1305 762 1305 q 911 1481 800 1371 l 930 1497 q 1001 1354 1001 1375 q 1161 1405 1087 1389 q 1164 1359 1164 1373 q 1145 1166 1164 1259 q 1335 1191 1244 1191 l 1408 1191 q 1413 1185 1413 1190 q 1351 1006 1385 1075 l 1351 1004 q 1495 933 1367 1004 l 1495 930 q 1316 773 1390 819 q 1522 600 1404 727 q 1364 521 1459 560 q 1354 515 1354 521 q 1413 342 1385 458 l 1408 339 l 1335 339 q 1145 363 1244 339 q 1164 165 1164 273 q 1161 125 1164 159 q 1006 176 1082 141 q 920 0 972 77 q 751 201 783 132 q 749 206 749 201 q 594 27 700 130 l 591 27 q 532 136 557 74 q 510 174 517 174 q 361 125 395 127 q 358 179 361 155 q 380 377 358 260 l 377 377 q 155 350 268 350 l 141 350 q 100 353 127 350 l 100 355 q 157 524 100 393 q 24 591 140 524 l 24 594 q 217 754 163 734 l 217 760 q 100 838 198 764 q 0 939 21 909 q 152 1015 78 987 l 152 1017 q 100 1177 104 1130 l 103 1177 q 141 1180 126 1180 l 146 1180 q 380 1153 266 1180 l 380 1156 q 358 1351 358 1267 q 361 1405 361 1375 l 363 1405 q 505 1359 428 1392 q 583 1519 519 1418 m 594 1427 q 529 1188 529 1295 q 567 1023 529 1112 q 570 1009 567 1014 q 513 952 559 952 q 426 979 506 952 q 334 993 378 993 q 92 925 225 993 l 92 922 q 258 798 159 861 q 277 757 277 774 q 206 681 277 718 q 119 608 142 630 l 117 608 q 255 551 156 579 q 361 537 323 537 q 494 562 405 537 l 518 562 q 562 515 549 562 l 562 502 q 537 377 537 415 l 537 353 q 602 119 537 250 l 605 119 q 705 247 664 184 q 738 263 726 263 l 757 263 q 841 168 786 263 q 909 92 897 100 q 977 334 977 234 q 920 532 977 419 l 917 548 q 963 602 927 602 l 985 602 l 1082 562 q 1188 545 1147 545 q 1427 613 1294 545 l 1427 616 q 1278 730 1351 687 q 1259 765 1259 751 l 1259 779 q 1329 854 1259 814 q 1402 920 1388 901 q 1164 985 1268 985 l 1153 985 q 1012 958 1107 985 q 958 1006 958 972 l 958 1023 q 985 1164 985 1116 q 917 1402 985 1266 l 914 1402 q 806 1261 841 1321 q 765 1245 779 1248 q 692 1313 723 1245 q 597 1427 646 1379 l 594 1427 m 415 1332 q 439 1150 420 1230 q 382 1093 424 1093 q 174 1123 257 1123 l 174 1120 q 209 1034 195 1057 q 331 1050 274 1047 q 510 1012 416 1050 l 510 1015 q 472 1191 472 1095 q 486 1305 472 1228 q 415 1332 449 1321 m 1023 1297 q 1039 1172 1039 1223 l 1039 1150 q 1015 1017 1039 1084 l 1017 1017 q 1164 1042 1090 1042 q 1294 1023 1226 1042 q 1340 1134 1324 1085 l 1329 1134 q 1142 1109 1262 1134 l 1137 1109 q 1096 1139 1096 1120 q 1088 1158 1090 1140 l 1088 1164 q 1107 1332 1107 1282 q 1023 1297 1051 1314 m 751 939 l 754 939 q 925 803 885 939 l 928 770 q 814 616 928 671 q 754 608 771 608 q 594 722 645 608 q 586 768 586 743 l 586 781 q 700 930 586 879 q 751 939 734 939 m 643 776 l 643 770 q 732 667 643 698 l 760 665 q 868 751 834 665 l 871 779 q 808 871 871 827 q 760 882 777 882 l 754 882 q 646 798 677 882 q 643 776 643 787 m 977 545 l 977 543 q 1031 345 1031 446 l 1031 320 q 1020 233 1031 271 q 1107 198 1040 222 l 1107 203 q 1088 361 1107 255 q 1134 418 1096 418 l 1150 418 q 1324 396 1273 396 l 1329 396 l 1340 393 q 1297 502 1340 406 l 1294 502 q 1188 488 1246 491 q 977 545 1082 488 m 358 480 q 212 505 294 480 q 174 407 187 456 l 176 407 q 369 434 254 407 l 391 434 q 437 388 437 420 l 437 374 q 415 198 416 253 q 496 233 496 227 q 480 355 480 296 l 480 363 q 505 507 480 433 q 358 480 428 480 z "},"D":{"ha":1542,"x_min":0,"x_max":1519,"o":"m 776 1519 q 844 1308 822 1405 q 1028 1470 968 1436 l 1028 1465 q 1001 1169 1028 1326 l 1004 1169 q 1188 1256 1068 1212 q 1308 1286 1293 1286 l 1308 1283 q 1202 1074 1253 1164 l 1261 1074 q 1430 1061 1329 1074 l 1430 1058 q 1221 879 1314 944 l 1221 876 q 1495 762 1314 865 q 1519 743 1519 747 q 1264 665 1301 665 q 1424 480 1380 549 l 1397 480 q 1183 496 1300 480 q 1278 260 1229 422 q 1289 212 1278 250 l 1286 212 q 1025 350 1152 270 q 1031 258 1031 315 q 1015 73 1031 172 q 863 247 923 163 l 860 247 q 784 0 860 210 l 781 0 q 654 285 677 168 q 477 65 572 167 l 477 62 l 472 62 q 453 274 453 181 l 453 309 l 456 315 l 453 315 q 239 206 347 252 l 239 209 q 339 486 274 368 l 336 486 q 52 453 165 453 q 217 648 87 520 q 231 662 220 648 q 0 735 98 697 q 103 798 6 745 q 244 854 153 825 q 76 987 136 936 q 30 1028 35 1028 l 30 1034 q 206 1053 137 1053 l 220 1053 q 231 1055 226 1053 q 241 1053 235 1053 l 266 1053 q 326 1050 285 1053 l 326 1053 q 206 1280 264 1149 l 212 1280 q 412 1218 328 1253 q 445 1202 412 1215 q 418 1459 426 1293 l 420 1459 q 648 1251 524 1396 l 651 1251 q 760 1497 663 1328 q 776 1519 773 1519 m 692 1183 q 724 1109 717 1136 q 749 1164 728 1109 q 800 1251 779 1219 q 765 1383 800 1259 q 708 1251 747 1366 l 692 1183 m 757 960 q 776 865 762 865 l 784 860 q 882 966 820 912 q 947 1185 918 1046 q 966 1345 966 1314 q 830 1188 854 1243 q 757 960 757 1071 m 483 1337 l 483 1335 q 532 1072 483 1274 q 613 898 572 952 q 659 852 648 857 q 694 884 694 869 q 700 947 700 939 q 483 1337 700 1151 m 963 1017 l 966 1017 q 1128 1066 1033 1050 q 1204 1199 1168 1131 l 1202 1199 q 982 1082 1069 1156 q 963 1017 974 1050 m 312 1191 q 407 1034 360 1095 q 494 1004 463 1018 l 494 1006 q 456 1131 477 1053 q 312 1191 344 1191 m 825 814 q 833 784 833 793 l 860 781 q 1253 977 1004 781 q 1299 1017 1299 1014 l 1280 1017 q 1251 1020 1261 1017 q 825 814 957 1020 m 160 996 q 336 868 256 910 q 496 789 437 806 q 570 795 529 795 q 624 789 605 795 l 627 803 q 537 909 563 857 q 410 974 519 935 q 233 998 317 998 q 160 996 183 996 m 1150 833 q 1063 784 1097 796 l 1063 781 q 1204 711 1105 772 q 1383 754 1228 711 l 1383 760 q 1150 833 1215 833 m 678 773 q 732 722 678 729 q 776 770 766 722 q 724 819 776 813 q 678 773 694 819 m 136 751 q 288 708 136 742 l 293 708 q 401 762 351 746 q 307 814 401 767 q 136 751 207 787 m 876 727 l 827 727 q 822 722 822 726 q 922 627 880 679 q 1147 559 991 591 q 1302 540 1244 545 q 1142 681 1206 647 q 974 746 1058 732 q 876 727 921 727 m 174 518 l 176 518 q 458 575 246 518 q 648 686 569 612 l 654 697 q 627 732 648 699 q 564 738 597 738 l 556 738 q 174 518 359 738 m 743 662 l 743 637 q 898 296 743 511 q 974 203 948 229 l 974 269 q 781 678 974 544 q 743 662 747 665 m 510 277 l 510 236 q 513 195 510 222 q 708 518 673 395 q 686 637 686 590 l 686 643 q 591 570 649 606 q 510 277 510 441 m 974 540 q 1015 426 997 492 q 1202 315 1128 351 q 1096 513 1129 505 q 974 543 1077 513 l 974 540 m 326 309 q 464 396 464 382 q 505 532 477 469 l 418 502 q 326 309 344 384 m 697 355 q 768 136 697 299 l 773 136 q 817 315 817 292 q 743 439 768 378 q 697 355 740 439 z "},"E":{"ha":1664,"x_min":0,"x_max":1541,"o":"m 781 1516 q 1036 1364 939 1516 q 1109 1373 1074 1373 q 1383 1177 1301 1373 q 1397 1085 1394 1131 q 1392 1009 1392 1041 q 1522 863 1482 962 q 1541 770 1541 815 l 1541 741 q 1419 518 1541 611 q 1386 499 1407 509 q 1397 431 1397 462 l 1397 399 q 1251 160 1397 256 q 1118 127 1181 127 l 1101 127 q 1023 138 1067 127 q 958 62 1023 123 q 776 0 875 0 q 529 144 624 0 q 453 133 486 133 l 434 133 q 195 271 288 133 q 157 404 157 341 l 157 437 q 165 494 157 469 q 30 621 82 529 q 0 741 0 686 l 0 770 q 152 1012 0 918 q 138 1101 138 1051 q 282 1348 138 1256 q 429 1386 349 1386 q 526 1370 472 1386 q 781 1516 616 1516 m 581 1345 q 768 1080 717 1245 l 770 1080 q 836 1210 790 1140 q 977 1343 922 1323 l 977 1345 q 776 1459 901 1459 q 581 1345 659 1459 m 195 1096 q 464 811 195 920 q 581 789 543 789 l 581 792 q 610 871 593 848 q 361 982 478 970 l 320 987 q 372 1039 320 991 q 543 985 461 1025 l 543 987 q 494 1164 496 1091 l 545 1213 l 548 1213 l 548 1204 q 654 920 548 1059 q 735 958 699 951 l 735 963 q 659 1177 735 1044 q 429 1329 561 1329 q 225 1210 300 1329 q 195 1096 195 1155 m 800 960 q 895 920 869 947 q 966 1025 915 920 q 1006 1180 1006 1119 l 1009 1180 q 1058 1131 1013 1180 q 1017 996 1055 1086 l 1020 996 q 1150 1036 1091 1025 q 1202 987 1158 1036 l 1202 985 l 1199 985 q 974 903 1114 985 q 941 871 944 881 q 974 781 958 850 q 987 779 983 781 q 1234 887 1109 794 q 1340 1088 1340 974 q 1242 1272 1340 1195 q 1112 1316 1180 1316 l 1107 1316 q 825 1061 932 1316 q 800 960 800 981 m 57 776 l 57 741 q 160 564 57 642 q 187 551 178 551 q 445 754 253 680 q 363 789 439 760 q 195 922 283 830 q 174 955 195 928 q 65 817 91 908 q 57 776 57 795 m 1364 952 q 1259 833 1356 915 q 1115 751 1194 783 q 1112 749 1112 751 q 1318 618 1188 733 l 1364 556 l 1367 556 q 1430 608 1397 570 q 1487 754 1487 681 q 1370 955 1487 873 q 1364 952 1364 955 m 637 773 l 637 757 q 732 632 637 680 q 768 627 757 627 l 779 627 q 911 732 871 627 q 914 762 914 751 l 914 768 q 814 898 914 858 q 784 903 803 903 l 768 903 q 643 806 686 903 q 637 773 637 787 m 212 420 q 347 209 212 288 q 431 190 401 190 l 450 190 q 730 450 623 190 q 749 524 741 485 q 738 572 746 572 q 662 605 699 580 q 559 399 589 526 q 548 320 551 359 q 496 372 545 320 q 543 526 497 414 l 540 526 q 388 477 433 477 l 342 526 q 575 616 456 538 q 616 651 616 646 q 583 727 591 688 l 581 727 q 358 648 477 720 q 228 496 241 562 q 212 420 217 482 m 936 651 q 1028 581 966 605 q 1215 526 1134 526 l 1215 524 q 1164 475 1172 475 q 1020 515 1131 475 q 1061 366 1061 415 l 1012 320 l 1009 320 l 1009 323 q 939 551 1009 422 q 887 602 928 572 q 811 572 834 572 q 806 524 811 554 q 917 285 835 381 q 1096 184 1003 184 l 1118 184 q 1324 326 1251 184 q 1343 412 1337 359 q 1066 705 1343 599 q 979 722 1007 722 q 960 694 960 722 q 936 651 947 668 m 776 410 q 583 165 702 235 q 776 57 659 57 q 971 163 899 57 q 779 410 850 229 l 776 410 z "},"F":{"ha":1623,"x_min":0,"x_max":1560,"o":"m 312 1522 q 532 1443 444 1488 q 784 1188 718 1343 l 827 1259 q 1001 1421 901 1363 q 1240 1516 1105 1481 q 1261 1519 1255 1519 l 1261 1516 q 1264 1459 1261 1507 q 1242 1237 1264 1362 l 1245 1237 q 1489 1267 1353 1267 l 1519 1267 q 1560 1264 1533 1267 l 1560 1261 q 1468 1012 1527 1121 q 1364 882 1427 946 q 1147 762 1232 772 l 1147 760 q 1354 648 1251 736 q 1476 491 1439 566 q 1554 288 1522 404 q 1560 255 1560 258 l 1457 255 q 1242 282 1369 255 l 1242 279 q 1264 62 1264 163 q 1261 0 1261 13 q 1047 73 1133 31 q 787 334 856 176 l 784 334 q 456 43 703 144 q 312 0 382 16 l 309 5 l 309 90 q 334 301 309 182 l 331 301 q 87 269 209 269 l 14 269 q 0 274 0 269 q 109 548 37 432 q 369 760 210 701 l 369 762 q 114 966 215 814 q 19 1169 62 1043 q 0 1251 0 1244 l 3 1251 q 60 1253 38 1253 q 334 1218 214 1253 l 334 1221 q 309 1435 309 1334 l 309 1508 l 312 1522 m 363 1449 q 499 987 363 1190 q 605 884 564 910 q 705 979 630 945 q 768 993 739 993 l 776 993 l 776 996 q 692 1237 776 1101 q 363 1449 594 1373 m 817 1101 q 836 985 830 1047 q 857 977 842 985 q 1044 1158 920 1076 q 1177 1218 1114 1195 q 1207 1446 1207 1339 l 1204 1446 q 941 1305 1069 1413 q 822 1126 850 1211 q 817 1101 817 1105 m 906 944 q 966 852 944 920 q 974 806 974 830 l 974 798 l 998 798 q 1432 1069 1281 798 q 1487 1210 1468 1143 l 1468 1210 q 1001 1055 1200 1210 q 906 944 915 971 m 73 1196 l 73 1194 q 315 849 153 943 q 480 792 427 792 q 488 789 480 789 q 583 795 552 795 l 583 825 q 488 909 515 882 q 453 955 484 918 q 366 1115 395 1034 q 334 1158 358 1158 q 79 1196 210 1196 l 73 1196 m 640 803 l 640 787 q 719 667 640 714 q 776 654 745 654 l 781 654 q 911 754 871 654 q 917 787 917 773 l 917 803 q 819 930 917 885 q 787 936 800 936 l 770 936 q 646 838 691 936 q 640 803 640 814 m 73 323 q 537 461 337 323 q 667 613 649 562 q 675 627 670 613 q 594 727 620 659 q 591 738 591 732 l 578 738 q 79 347 210 738 q 73 323 73 327 m 958 713 q 1218 374 1125 618 q 1245 342 1218 342 q 1487 309 1377 309 l 1487 312 q 1305 613 1420 522 q 968 724 1180 724 l 966 724 q 958 713 962 724 m 925 665 q 836 605 888 618 q 792 597 812 597 l 792 583 q 1207 73 792 201 l 1207 79 q 1061 548 1207 348 q 925 665 969 647 m 727 602 q 404 326 638 418 q 369 149 385 306 l 363 73 q 708 309 612 151 q 754 418 748 379 q 735 602 735 502 l 727 602 z "},"G":{"ha":1612,"x_min":0,"x_max":1571,"o":"m 787 1519 q 949 1278 927 1367 q 974 1196 958 1270 q 1313 1294 1121 1294 l 1329 1294 l 1343 1297 q 1272 1061 1339 1223 q 1204 947 1248 1011 q 1435 865 1320 937 q 1571 751 1497 827 q 1221 602 1430 642 q 1343 231 1343 455 l 1343 203 q 1128 266 1295 203 q 939 391 1050 296 q 871 141 935 294 q 784 0 821 41 q 640 190 683 102 q 594 347 594 292 l 591 347 q 442 258 527 297 q 233 195 363 222 l 228 195 l 228 201 q 350 594 228 448 l 350 597 q 49 711 212 610 q 0 746 3 737 q 252 914 155 888 q 366 939 331 939 l 366 941 q 228 1286 258 1097 l 233 1289 q 635 1158 483 1289 q 749 1468 647 1286 q 787 1519 783 1518 m 789 1424 q 686 1099 686 1232 q 779 882 749 1027 l 779 876 l 795 876 q 836 868 811 876 q 925 1120 925 1002 q 795 1424 925 1265 l 789 1424 m 979 1123 l 979 1099 q 895 854 979 986 q 1128 944 1038 944 q 1272 1237 1234 1072 q 1107 1202 1175 1226 q 979 1123 1036 1175 m 298 1229 q 445 936 345 1049 q 697 830 548 936 q 724 857 697 839 q 635 1074 698 999 q 513 1172 570 1145 q 298 1229 404 1222 m 901 787 l 901 760 q 1109 694 977 760 q 1166 654 1139 677 q 1435 732 1261 654 q 1478 757 1442 740 l 1478 762 q 1359 841 1377 837 q 1185 890 1265 890 l 1161 890 q 901 787 1041 890 m 95 751 q 350 654 186 686 l 401 646 q 654 749 536 741 q 675 751 656 751 l 675 770 q 458 879 584 853 q 399 884 410 882 q 95 754 254 884 l 95 751 m 732 762 q 787 708 743 708 l 789 708 q 844 762 844 720 l 844 765 q 795 819 831 819 l 784 819 q 732 773 750 819 l 732 762 m 884 705 q 868 684 884 703 q 933 496 933 566 q 971 442 933 474 q 1166 312 1055 359 q 1286 274 1234 287 q 1253 431 1272 375 q 1147 597 1225 515 l 1080 646 q 884 705 1008 687 m 288 266 q 586 418 466 313 q 597 483 591 420 q 697 694 610 568 l 697 697 q 461 618 595 697 q 347 486 375 549 q 288 266 288 366 m 743 659 q 646 393 646 530 q 779 92 646 245 q 882 415 882 273 l 882 445 q 819 654 882 543 l 792 651 l 787 651 q 743 659 764 651 z "},"H":{"ha":1689,"x_min":0,"x_max":1600,"o":"m 990 1576 q 1251 1424 1152 1576 q 1294 1267 1294 1346 q 1134 936 1294 1114 q 1175 939 1161 939 l 1180 939 q 1581 722 1493 939 q 1600 610 1600 667 l 1600 602 q 1449 342 1600 441 q 1305 301 1373 301 l 1275 301 q 963 458 1141 301 l 963 456 q 966 415 963 449 q 860 92 966 216 q 629 0 763 0 q 355 176 457 0 q 328 298 328 243 l 328 323 q 491 646 328 467 q 429 640 477 640 l 391 640 q 174 686 291 640 q 0 968 0 787 q 165 1242 0 1143 q 293 1275 236 1275 l 326 1275 q 616 1142 452 1275 q 659 1099 616 1139 l 656 1118 l 656 1185 q 751 1473 656 1354 q 990 1576 846 1576 m 711 1164 q 738 998 711 1095 q 814 1009 773 1009 q 987 906 920 1009 l 990 906 q 1180 1093 1083 943 q 1237 1264 1237 1199 q 1093 1495 1237 1409 q 982 1519 1036 1519 q 749 1362 834 1519 q 711 1164 711 1249 m 57 960 q 176 751 57 844 q 391 697 286 697 l 429 697 q 605 732 504 697 q 594 798 597 753 q 678 966 594 893 l 681 966 l 681 968 q 578 1096 650 1027 q 309 1221 427 1221 q 103 1109 190 1221 q 57 960 57 1042 m 651 792 q 730 662 651 720 q 808 640 778 640 q 941 722 886 640 q 963 798 963 764 q 865 941 963 887 q 808 952 832 952 l 806 952 q 654 827 698 952 q 651 792 654 826 m 1015 846 q 1020 798 1015 838 q 928 621 1020 695 q 996 510 936 574 q 1194 377 1093 415 q 1280 358 1240 358 l 1308 358 q 1478 442 1394 358 q 1544 605 1544 520 l 1544 616 q 1421 827 1544 739 q 1185 882 1318 882 q 1015 846 1078 882 m 385 320 l 385 301 q 510 92 385 176 q 637 57 570 57 q 863 198 776 57 q 909 415 909 307 q 863 591 909 537 q 822 586 837 586 l 792 586 q 635 673 704 586 l 635 675 q 510 578 610 675 q 385 320 385 428 z "},"I":{"ha":1612,"x_min":0,"x_max":1533,"o":"m 800 1519 l 911 1402 q 1036 1473 1022 1473 l 1036 1470 q 1096 1343 1063 1417 q 1397 1370 1208 1370 l 1397 1364 q 1362 1036 1397 1206 l 1364 1036 q 1468 990 1461 1000 q 1392 841 1421 892 q 1533 716 1443 806 q 1413 602 1499 678 q 1484 483 1438 570 l 1364 426 q 1402 73 1402 287 l 1400 73 q 1009 127 1203 73 l 1009 125 l 971 30 q 825 103 912 53 q 732 0 813 81 q 616 122 686 43 q 491 54 506 54 l 437 171 q 171 141 314 141 l 114 141 l 114 160 q 152 488 114 308 l 149 488 q 30 540 41 530 q 92 665 36 558 q 0 754 57 693 q 109 849 83 833 q 41 974 109 855 q 33 998 33 994 q 201 1069 113 1036 l 201 1072 q 176 1354 176 1190 l 176 1370 l 179 1370 q 426 1348 295 1370 q 483 1484 426 1352 q 675 1378 557 1449 q 800 1519 717 1437 m 572 1050 l 572 1023 q 524 974 572 989 l 515 974 q 472 979 476 979 l 467 979 q 84 754 340 979 l 84 751 q 377 551 275 572 q 434 537 395 543 q 464 540 452 540 l 475 540 q 521 496 505 540 q 518 429 521 473 q 656 163 526 326 q 732 81 730 81 q 944 401 923 306 q 963 486 954 421 q 1006 518 985 518 l 1023 518 q 1096 502 1079 502 q 1449 713 1222 502 l 1449 716 q 1196 901 1283 866 q 1063 944 1119 944 l 1044 944 q 996 1001 1007 944 l 1015 1080 q 827 1408 1015 1196 q 800 1435 802 1435 q 665 1267 715 1345 q 572 1050 572 1128 m 510 1402 l 483 1337 q 616 1297 514 1337 l 637 1329 q 510 1405 566 1380 l 510 1402 m 947 1356 q 979 1308 969 1327 l 1039 1329 q 1006 1394 1021 1375 q 947 1356 965 1372 m 233 1313 l 233 1310 q 290 979 233 1118 q 467 1036 395 1036 l 475 1036 q 515 1031 490 1036 l 515 1036 q 583 1245 515 1133 q 412 1294 583 1260 q 244 1310 302 1310 l 233 1313 m 1012 1259 q 1069 1088 1069 1161 l 1069 1074 q 1053 1001 1069 1033 l 1058 1001 q 1264 933 1141 1001 q 1332 1213 1311 1027 q 1340 1313 1337 1260 q 1012 1259 1162 1313 m 111 971 q 155 890 111 960 q 239 949 239 947 q 214 1012 218 1008 q 111 971 210 1012 m 1345 982 l 1313 898 q 1343 879 1318 898 l 1348 879 q 1389 966 1389 959 l 1345 982 m 743 922 l 749 922 q 917 808 862 922 q 930 738 930 778 q 800 562 930 612 q 746 553 781 553 q 572 675 625 553 q 562 738 562 701 q 689 914 562 862 q 743 922 713 922 m 618 738 l 618 735 q 708 616 618 654 q 746 610 728 610 q 868 703 831 610 q 873 738 873 715 q 760 865 873 837 l 741 865 q 621 765 656 865 q 618 738 618 751 m 136 627 l 106 567 q 171 545 157 545 q 187 589 187 584 q 136 627 184 589 m 1318 532 q 1343 480 1343 490 q 1402 510 1390 500 l 1370 567 l 1318 532 m 236 553 q 171 195 171 368 l 174 195 q 193 198 184 198 q 518 260 376 198 q 461 442 461 363 q 467 483 461 457 l 431 483 q 236 553 351 483 m 1093 445 q 1015 461 1064 445 q 925 236 1015 374 q 1055 174 948 208 q 1345 133 1224 133 l 1345 136 q 1280 483 1345 331 q 1267 499 1270 499 q 1093 445 1166 445 m 494 184 q 521 133 515 133 q 581 171 577 163 q 548 212 578 171 q 494 184 497 189 m 890 187 q 863 146 890 182 q 941 109 932 109 l 955 149 q 890 187 925 163 z "},"J":{"ha":1563,"x_min":0,"x_max":1519,"o":"m 757 1519 l 762 1519 q 871 1326 829 1519 l 882 1326 q 1034 1462 974 1462 l 1042 1462 q 1096 1392 1083 1462 l 1096 1337 q 1085 1242 1096 1301 q 1259 1313 1193 1313 q 1313 1253 1313 1313 q 1240 1082 1313 1192 q 1264 1050 1242 1082 q 1348 1055 1314 1055 l 1351 1055 q 1478 1012 1451 1055 l 1481 998 l 1481 987 q 1370 860 1481 940 q 1519 762 1519 822 l 1519 757 q 1335 648 1519 693 l 1332 635 q 1462 486 1462 543 l 1462 477 q 1392 423 1462 436 l 1337 423 q 1251 434 1289 423 l 1245 426 q 1313 260 1313 329 q 1253 206 1313 206 q 1096 271 1195 206 q 1050 244 1054 244 q 1055 171 1055 218 l 1055 168 q 993 38 1055 38 l 987 38 q 860 149 940 38 q 762 0 822 0 l 757 0 q 651 174 695 0 q 629 179 646 174 q 486 57 541 57 l 477 57 q 423 127 436 57 l 423 182 q 431 263 423 215 l 423 269 l 420 269 q 260 206 323 206 q 206 266 206 206 q 269 420 206 321 l 269 426 l 241 469 q 171 464 225 464 l 168 464 q 41 507 68 464 l 38 521 l 38 532 q 149 659 38 579 q 0 757 0 697 l 0 762 q 182 871 0 825 l 184 887 q 57 1034 57 976 l 57 1042 q 127 1096 57 1083 l 182 1096 q 274 1085 223 1096 l 274 1090 q 206 1259 206 1193 q 266 1313 206 1313 q 434 1242 323 1313 q 469 1261 465 1261 q 464 1348 464 1316 l 464 1351 q 526 1481 464 1481 l 532 1481 q 659 1370 579 1481 q 757 1519 697 1519 m 711 1337 l 803 1337 l 808 1335 l 808 1340 q 760 1457 788 1431 q 711 1337 720 1407 m 532 1421 q 521 1359 521 1394 l 521 1324 l 524 1291 q 618 1321 604 1321 l 618 1324 q 537 1419 597 1369 l 532 1421 m 939 1310 q 1031 1272 983 1294 q 1042 1356 1042 1321 q 1031 1402 1038 1402 q 939 1310 1012 1402 m 228 770 l 228 732 q 404 355 228 531 q 757 220 571 220 q 1128 374 960 220 q 1261 586 1224 475 q 1289 749 1289 691 q 1107 1150 1289 973 q 1025 1207 1030 1207 q 776 1280 897 1280 l 738 1280 q 380 1123 549 1280 q 228 770 228 956 m 263 1256 q 312 1137 263 1223 l 382 1204 l 382 1207 q 263 1256 296 1256 m 1131 1204 l 1204 1134 q 1256 1256 1251 1209 q 1131 1204 1223 1256 m 117 1031 q 203 944 140 987 q 241 1034 214 981 q 163 1042 183 1042 q 117 1031 117 1038 m 1291 993 q 1324 901 1324 920 q 1419 982 1369 922 l 1421 987 q 1359 998 1394 998 l 1324 998 q 1291 993 1291 998 m 62 760 q 171 713 92 730 l 171 792 l 174 806 q 171 808 171 806 q 62 760 77 781 m 1340 808 l 1340 806 l 1343 789 l 1343 711 q 1457 760 1437 734 q 1340 808 1428 789 m 98 532 q 163 521 130 521 l 209 521 q 214 529 214 521 q 187 613 187 595 q 100 537 151 597 l 98 532 m 1316 575 q 1280 486 1316 561 q 1356 477 1334 477 q 1402 488 1402 481 q 1316 575 1379 532 m 1207 377 q 1145 309 1207 373 l 1145 307 q 1253 263 1229 263 q 1256 266 1253 266 q 1207 377 1249 315 m 307 372 q 263 263 269 307 q 372 309 326 275 l 307 372 m 483 231 l 483 228 q 477 163 477 174 q 488 117 481 117 q 570 195 524 135 q 483 231 563 195 m 909 184 l 909 182 q 987 98 951 118 q 998 163 998 130 l 998 209 q 993 214 998 214 q 909 184 960 198 m 713 165 q 760 62 735 83 q 806 165 784 83 l 713 165 z "},"K":{"ha":1521,"x_min":0,"x_max":1443,"o":"m 705 1519 l 730 1519 q 1006 1430 864 1519 q 1074 1272 1074 1368 l 1074 1270 l 1072 1242 l 1074 1242 q 1443 1337 1276 1337 q 1381 1082 1443 1255 q 1256 906 1336 987 q 1210 868 1211 872 q 1370 817 1318 853 q 1443 643 1443 767 q 1199 288 1443 448 q 1107 266 1144 266 q 977 315 1048 266 q 974 312 974 315 q 890 46 951 156 q 868 0 890 42 l 865 0 q 600 350 666 143 q 597 358 597 355 q 410 236 500 236 q 203 350 313 236 q 106 659 106 491 q 247 846 106 785 l 296 860 l 296 863 q 111 1020 250 879 l 30 1131 q 0 1188 0 1179 q 279 1242 165 1242 q 461 1210 370 1242 q 442 1305 442 1261 l 442 1321 q 627 1508 442 1444 q 705 1519 668 1519 m 499 1318 l 499 1310 q 694 941 499 1177 l 711 930 l 713 930 l 751 1058 l 757 1058 l 795 930 l 798 930 q 892 1004 889 984 q 1017 1278 1017 1168 q 846 1440 1017 1396 q 738 1462 789 1462 l 705 1462 q 513 1367 592 1462 q 499 1318 499 1343 m 868 873 q 968 860 887 873 q 1107 876 1093 871 q 1343 1142 1267 952 q 1378 1275 1362 1204 l 1375 1275 q 1115 1199 1278 1267 q 1047 1147 1047 1168 q 892 909 1017 1067 q 865 873 865 882 l 868 873 m 87 1153 q 184 1028 110 1111 q 382 879 304 910 q 407 871 400 871 l 431 871 q 553 863 482 871 q 646 879 646 873 q 572 1001 635 926 q 494 1131 530 1065 q 277 1185 396 1185 q 87 1153 190 1185 m 708 873 q 705 876 708 876 q 678 830 693 830 l 689 792 l 689 773 q 730 741 707 773 q 746 746 739 746 l 762 746 l 781 741 q 822 776 787 762 l 822 803 l 830 830 q 806 868 816 830 l 806 876 q 798 873 803 876 q 754 890 778 873 q 708 873 732 873 m 163 656 q 260 374 163 497 q 374 301 330 309 q 410 293 403 293 q 659 591 523 293 q 673 635 673 623 l 673 665 q 675 719 673 682 l 543 692 l 629 789 l 629 792 q 418 817 487 817 q 165 684 201 817 q 163 656 163 660 m 879 789 l 966 692 l 963 692 l 833 719 q 865 583 833 637 q 1109 323 979 323 q 1329 480 1195 323 q 1386 651 1386 569 q 1302 787 1386 758 q 1150 814 1234 814 l 1115 814 q 879 789 1017 814 m 757 686 q 640 426 700 524 q 746 193 650 326 q 846 90 802 128 l 849 90 q 922 372 922 264 q 817 548 854 456 q 760 686 773 660 l 757 686 z "},"L":{"ha":1689,"x_min":0,"x_max":1587,"o":"m 1213 1576 q 1533 1370 1428 1576 q 1560 1245 1560 1301 l 1560 1210 q 1457 971 1560 1081 q 1210 806 1322 844 q 1202 800 1202 806 q 1435 684 1274 791 q 1565 510 1536 599 q 1587 385 1587 450 q 1443 98 1587 212 q 1229 27 1344 27 q 968 141 1077 27 q 825 361 847 279 q 817 380 821 361 l 814 380 q 581 52 736 153 q 391 0 492 0 q 76 201 186 0 q 46 342 46 273 l 46 358 q 369 760 46 601 q 415 776 408 776 l 415 779 q 73 979 201 833 q 0 1204 0 1080 q 182 1514 0 1396 q 355 1557 269 1557 l 361 1557 q 768 1218 618 1557 q 787 1175 783 1175 q 939 1454 811 1297 q 1213 1576 1055 1576 m 817 998 l 941 1139 l 944 1139 q 922 925 941 1132 q 1137 960 949 928 l 1006 827 l 1053 827 l 1069 825 q 1416 1017 1299 880 q 1492 1139 1471 1072 q 1506 1226 1503 1183 q 1356 1481 1506 1384 q 1215 1519 1286 1519 l 1210 1519 q 930 1345 1046 1519 q 817 998 817 1177 m 57 1199 q 369 852 57 977 q 562 817 474 817 l 578 817 l 597 822 l 464 990 l 467 990 q 670 936 484 987 q 675 1153 673 978 q 751 1044 678 1153 l 754 1044 q 678 1272 733 1175 q 363 1500 541 1500 l 353 1500 q 98 1348 197 1500 q 57 1199 57 1276 m 727 977 l 727 930 q 681 882 713 882 l 665 882 q 618 890 654 882 q 654 825 652 850 q 594 760 654 781 q 586 757 589 757 l 586 754 q 667 700 667 742 l 667 684 q 648 632 667 668 q 711 656 687 654 q 773 578 764 656 q 800 632 777 581 q 836 648 825 648 l 854 648 q 909 618 868 648 l 909 621 q 895 675 895 654 l 895 681 q 944 730 907 730 l 985 735 l 985 738 q 928 787 943 755 l 928 817 q 968 873 928 835 l 966 873 q 917 868 933 868 q 865 922 877 868 l 868 966 q 800 920 830 920 q 727 977 762 920 m 1053 765 l 1053 762 l 1166 697 l 1166 694 q 952 675 977 675 l 952 673 q 1020 469 1001 532 l 846 591 l 846 572 q 844 513 846 553 l 841 513 l 841 518 l 838 518 q 974 222 876 336 q 1232 84 1086 84 q 1487 231 1381 84 q 1530 385 1530 310 l 1530 388 q 1375 651 1530 545 q 1099 765 1276 732 q 1069 768 1084 768 q 1053 765 1067 768 m 103 363 l 103 336 q 222 114 103 212 q 399 57 301 57 q 746 361 611 57 q 760 404 760 397 l 711 600 l 521 494 l 521 496 q 610 692 600 661 q 434 722 448 722 q 138 494 229 639 q 103 363 103 420 z "},"M":{"ha":1635,"x_min":0,"x_max":1546,"o":"m 784 1573 l 814 1573 q 930 1492 888 1573 l 933 1481 q 1082 1554 1003 1554 q 1251 1457 1169 1554 q 1272 1370 1272 1413 q 1183 1147 1272 1279 q 1264 1158 1220 1158 q 1506 944 1422 1158 q 1546 789 1543 861 q 1451 651 1546 686 q 1525 510 1525 580 l 1525 502 q 1427 334 1525 415 q 1340 312 1381 312 q 1093 420 1242 312 l 1093 418 q 1123 288 1123 350 l 1123 279 q 865 22 1123 108 q 770 0 808 0 l 743 0 q 616 92 653 0 l 613 92 q 469 19 549 19 q 312 100 394 19 q 277 203 277 153 q 366 423 277 291 q 290 412 328 412 l 271 412 q 19 678 109 412 q 0 773 0 730 l 0 784 q 92 920 0 884 l 92 922 q 19 1066 19 987 q 95 1218 19 1139 q 201 1259 146 1259 q 461 1142 306 1259 l 461 1145 q 426 1289 426 1229 q 751 1571 426 1489 q 784 1573 766 1573 m 483 1289 q 618 998 483 1175 l 618 990 q 591 963 615 963 l 589 963 q 505 1034 570 963 q 415 1107 492 1041 q 203 1202 281 1202 q 76 1074 114 1202 l 76 1061 q 195 920 76 989 l 201 901 q 130 871 201 871 q 57 798 57 852 l 57 776 q 155 532 57 680 q 274 469 208 469 l 298 469 q 448 515 347 469 l 453 515 q 480 488 480 512 q 420 401 480 475 q 334 201 334 280 q 448 79 334 122 q 477 76 463 76 q 597 165 537 76 q 635 201 614 201 q 665 130 665 201 q 738 57 684 57 l 760 57 q 955 122 831 57 q 1066 277 1066 184 l 1066 290 q 960 540 1066 385 q 958 551 958 545 q 987 578 958 572 q 1063 518 1002 578 q 1345 369 1236 369 q 1468 491 1428 369 l 1468 510 q 1351 648 1468 583 l 1345 667 l 1345 670 q 1373 697 1349 697 l 1392 697 q 1481 746 1456 697 q 1489 789 1489 774 q 1397 1031 1489 876 q 1267 1101 1338 1101 l 1256 1101 q 1099 1055 1197 1101 l 1096 1055 q 1069 1082 1069 1059 l 1069 1085 q 1139 1183 1069 1099 q 1215 1373 1215 1299 l 1215 1375 q 1109 1492 1215 1451 q 1080 1497 1099 1497 l 1077 1497 q 936 1381 1002 1497 l 917 1375 l 914 1375 q 887 1411 887 1375 q 890 1413 887 1413 q 838 1511 890 1484 q 795 1519 808 1519 q 559 1430 712 1519 q 483 1289 483 1370 m 768 987 l 800 987 q 977 876 899 987 q 1001 779 1001 822 l 1001 757 q 901 586 1001 659 q 798 553 844 553 l 776 553 q 578 694 646 553 q 567 754 567 736 l 567 787 q 637 933 567 861 q 768 987 706 987 m 621 770 q 730 618 621 669 q 784 608 753 610 q 928 697 873 608 q 947 770 947 738 q 857 914 947 859 q 784 933 817 933 q 640 844 694 933 q 621 770 627 823 z "},"N":{"ha":1624,"x_min":0,"x_max":1568,"o":"m 743 1519 q 911 1313 862 1396 q 1090 1394 994 1358 q 1150 1213 1131 1291 q 1261 1218 1192 1218 l 1280 1218 l 1297 1221 q 1310 1218 1301 1218 l 1321 1218 q 1310 1053 1318 1115 q 1527 977 1439 1017 l 1527 971 q 1435 795 1476 861 q 1568 670 1524 718 q 1416 537 1501 605 q 1468 420 1449 473 q 1294 363 1375 385 q 1302 201 1302 281 l 1302 179 l 1289 182 l 1283 182 q 1082 198 1174 182 q 1028 49 1082 186 q 868 125 988 60 q 751 0 809 54 q 643 117 702 46 l 640 117 q 453 38 538 65 l 453 41 q 401 203 423 119 q 328 201 351 201 l 217 201 l 217 203 q 233 393 217 286 q 46 467 127 429 l 46 469 q 127 627 73 526 l 127 629 q 0 749 116 629 q 136 865 41 791 q 54 1050 54 1032 q 231 1104 101 1069 q 228 1204 228 1173 l 228 1283 l 231 1283 q 369 1275 277 1283 q 442 1459 393 1352 l 445 1459 q 605 1375 532 1420 q 743 1519 648 1428 m 741 1454 q 524 1126 524 1230 q 746 1188 636 1188 l 770 1188 q 947 1150 852 1188 l 947 1153 q 743 1454 905 1265 l 741 1454 m 464 1394 q 418 1267 418 1284 q 518 1251 425 1267 q 575 1337 530 1274 l 575 1340 q 464 1397 529 1367 l 464 1394 m 939 1272 q 982 1188 960 1237 l 985 1188 q 1104 1207 1073 1207 q 1061 1332 1071 1324 q 939 1272 990 1304 m 271 1237 q 298 968 271 1101 q 391 1006 387 1002 q 472 1088 458 1088 l 472 1096 q 496 1207 472 1149 l 494 1207 q 271 1237 334 1237 m 998 1145 q 1053 1085 998 1118 q 1166 947 1142 1001 q 1240 922 1179 947 q 1272 1164 1272 1045 l 1275 1175 q 998 1145 1160 1175 m 336 754 l 336 741 q 334 738 336 738 l 336 732 l 336 716 q 480 420 336 559 q 746 315 611 315 l 773 315 q 1096 475 957 315 q 1185 727 1185 595 l 1185 735 q 987 1088 1185 947 q 776 1153 873 1153 l 746 1153 q 423 990 562 1153 q 336 754 336 869 m 114 1023 q 176 892 151 932 l 258 947 q 236 1055 250 976 l 233 1055 q 114 1023 225 1055 m 1305 1006 q 1283 898 1299 969 q 1394 825 1329 873 l 1397 825 q 1465 952 1429 871 l 1462 952 q 1305 1006 1384 985 m 68 751 l 68 746 q 342 545 252 568 l 342 548 q 301 724 301 637 l 301 749 q 347 939 301 840 q 73 754 233 888 q 68 751 73 751 m 1194 887 q 1221 727 1221 807 q 1134 467 1221 591 l 1134 464 l 1137 464 q 1421 602 1244 464 q 1500 667 1482 654 l 1500 673 q 1234 873 1339 822 l 1194 890 l 1194 887 m 163 594 q 109 488 109 494 l 111 488 q 241 439 178 461 q 260 532 241 447 q 168 594 200 568 l 163 594 m 1280 456 q 1289 412 1283 448 q 1405 448 1340 423 l 1405 450 q 1375 510 1385 498 q 1280 456 1335 483 m 304 507 q 263 244 263 336 l 266 244 q 537 271 423 244 l 537 274 q 502 361 515 317 q 374 486 465 373 q 304 507 345 491 m 1150 420 l 1115 420 l 1096 423 q 1015 353 1062 385 q 974 271 1015 342 l 974 269 q 1213 231 1114 231 l 1256 231 q 1237 437 1256 328 q 1150 420 1185 420 m 567 323 l 567 320 q 751 65 592 241 q 947 317 906 231 q 765 279 861 279 l 760 279 q 567 323 658 279 m 448 209 q 483 98 464 151 q 613 155 561 130 q 562 231 589 187 q 448 209 476 209 m 947 228 q 901 160 901 165 q 1001 111 997 111 q 1034 206 1034 187 q 947 228 1028 206 z "},"O":{"ha":1631,"x_min":0,"x_max":1527,"o":"m 684 1522 q 996 1424 837 1522 q 998 1421 996 1421 q 1128 1481 1066 1481 l 1134 1481 q 1451 1275 1321 1481 q 1527 1042 1527 1124 l 1527 1017 q 1354 808 1527 887 q 1286 787 1312 791 l 1286 784 q 1432 716 1352 779 q 1487 551 1487 650 q 1232 160 1487 334 q 901 0 1122 0 q 673 43 798 0 q 589 111 629 64 q 545 228 545 177 q 334 92 439 92 q 130 193 247 92 l 90 247 q 0 567 0 386 q 52 703 0 637 q 5 879 5 782 q 182 1232 5 1056 q 339 1305 252 1305 l 374 1305 l 374 1308 q 559 1503 374 1427 q 684 1522 618 1522 m 429 1289 q 589 1175 486 1276 q 722 996 676 1075 q 779 1006 753 1006 l 825 1006 q 898 1259 825 1054 q 960 1373 936 1339 l 960 1375 q 849 1432 948 1394 q 684 1465 759 1465 l 675 1465 q 448 1356 537 1465 q 429 1289 429 1327 m 830 949 l 819 949 q 792 952 806 949 q 724 939 769 949 q 640 1017 678 939 q 399 1240 509 1204 l 347 1251 q 176 1142 267 1251 q 62 882 62 1002 l 62 873 q 122 711 62 772 q 271 670 175 670 q 600 732 378 670 q 670 678 640 732 q 713 613 713 644 q 656 488 713 595 q 600 260 600 350 q 806 68 600 94 q 906 57 850 57 q 1202 222 1110 57 l 1204 250 l 1204 260 q 936 646 1204 393 q 930 670 930 663 l 930 681 q 952 743 930 688 q 990 806 965 806 q 1001 811 990 811 q 1457 968 1377 811 q 1473 1031 1468 988 q 1359 1308 1462 1160 q 1134 1424 1253 1424 l 1131 1424 q 884 1020 985 1424 q 844 955 872 955 q 830 949 844 949 m 792 879 q 887 803 857 879 q 892 768 892 791 l 892 765 q 806 659 892 686 l 789 659 q 692 741 719 659 q 689 768 689 755 q 768 876 689 846 l 792 879 m 746 770 l 746 768 q 789 716 746 728 l 792 716 q 836 768 825 716 l 836 770 q 792 822 836 807 q 746 770 755 822 m 987 673 q 1185 456 1149 522 q 1261 269 1261 342 l 1261 255 q 1430 551 1430 395 q 1321 716 1430 680 q 1134 743 1238 743 q 1009 730 1009 743 l 987 673 m 271 613 q 90 659 168 613 l 90 656 q 57 562 57 613 q 198 209 57 346 q 339 149 288 149 q 553 353 437 149 q 656 613 566 446 q 600 675 635 627 q 271 613 401 613 z "},"P":{"ha":1552,"x_min":0,"x_max":1470,"o":"m 694 1522 q 993 1430 839 1522 q 1335 1158 1204 1430 q 1367 1066 1356 1101 q 1470 817 1470 970 q 1392 543 1470 684 l 1394 529 l 1394 496 q 1161 171 1394 300 q 1025 119 1109 144 q 765 0 926 0 q 469 92 620 0 q 396 130 437 130 q 176 309 260 176 q 100 491 100 451 q 0 741 0 590 q 57 971 0 848 q 46 1025 46 1002 l 46 1044 q 193 1316 46 1198 q 423 1421 309 1402 q 472 1449 456 1421 q 694 1522 569 1522 m 521 1411 q 673 1234 619 1370 q 722 1028 722 1094 l 727 1028 l 727 1031 q 789 1270 727 1090 q 879 1397 819 1339 q 903 1413 886 1397 q 700 1465 795 1465 l 681 1465 q 521 1411 591 1465 m 770 930 q 830 901 800 922 q 1251 1112 1097 1112 q 1291 1107 1289 1109 l 1291 1112 q 979 1375 1178 1375 q 792 1077 859 1375 q 770 930 779 1006 m 103 1044 l 103 1031 q 534 825 103 883 q 589 819 539 825 q 646 906 589 854 q 675 928 675 922 q 613 1232 675 1053 q 448 1367 547 1367 q 244 1283 368 1361 q 103 1044 103 1175 m 868 854 q 882 798 882 818 l 882 776 q 1191 716 981 776 q 1359 608 1335 656 l 1362 608 q 1413 822 1413 724 q 1318 1034 1413 947 q 1251 1055 1286 1055 q 868 854 1116 1055 m 95 917 q 57 735 57 817 q 163 515 57 598 q 217 502 186 502 l 228 502 q 586 686 346 502 q 608 708 608 702 q 586 762 591 737 q 190 852 292 794 q 95 917 146 870 m 643 795 l 643 779 q 716 697 643 724 q 732 694 732 697 q 825 768 795 694 l 825 795 q 751 876 825 849 l 732 879 q 654 830 688 879 q 643 795 643 809 m 865 722 q 825 670 865 705 q 1058 214 1058 385 l 1055 190 q 1199 260 1080 190 q 1337 496 1337 369 l 1337 518 q 1177 659 1337 595 q 879 719 980 719 q 865 722 879 722 m 648 665 q 228 445 382 445 l 217 445 q 174 450 185 445 l 174 448 q 488 176 282 176 q 697 613 640 176 q 700 643 697 619 q 648 665 680 647 m 526 125 l 526 122 q 765 57 665 57 q 985 160 898 57 q 1001 225 1001 189 q 806 600 1001 350 q 765 643 773 643 q 751 581 751 643 q 697 328 727 420 q 605 168 669 245 q 526 125 555 127 z "},"Q":{"ha":1522,"x_min":0,"x_max":1432,"o":"m 515 1440 l 553 1440 q 806 1305 744 1440 q 833 1164 833 1249 q 811 990 833 1088 l 811 987 l 814 987 q 920 1150 831 1039 q 1096 1248 1015 1248 l 1118 1248 q 1381 1082 1242 1248 q 1432 914 1432 996 l 1432 895 q 1381 703 1432 796 q 1115 610 1258 610 l 1077 610 q 993 618 1034 610 l 990 618 l 990 616 q 1245 326 1245 484 l 1245 320 q 1118 84 1245 210 q 909 0 1021 0 l 892 0 q 700 52 791 0 q 605 339 605 169 q 610 420 605 356 q 342 203 513 266 l 301 195 q 127 274 238 202 q 0 548 0 379 q 282 836 0 836 q 431 819 336 836 q 304 917 366 859 q 184 1142 193 1045 q 312 1364 224 1295 q 515 1440 406 1440 m 244 1139 q 350 952 248 1071 q 483 857 423 890 q 502 811 502 834 q 453 760 486 760 l 445 760 q 274 779 334 779 q 84 686 133 779 q 57 540 57 624 q 255 269 57 356 q 304 255 292 255 q 491 366 424 286 q 570 467 537 411 q 602 483 590 483 l 624 483 q 670 429 659 483 q 662 339 662 379 l 662 336 q 741 95 662 193 q 890 57 819 57 l 914 57 q 1161 231 1051 57 q 1188 320 1188 279 l 1188 328 q 947 575 1188 448 q 925 613 925 598 l 925 629 q 971 675 939 675 l 979 675 l 1096 665 q 1337 743 1228 665 q 1378 901 1366 791 q 1215 1156 1378 1053 q 1109 1194 1154 1194 q 863 960 988 1194 q 806 920 842 920 q 751 968 751 934 l 751 977 q 776 1164 776 1101 q 627 1375 776 1345 q 532 1386 584 1383 q 247 1161 332 1386 q 244 1139 244 1146 m 711 852 q 846 768 798 852 q 863 697 863 739 q 743 553 863 593 q 713 551 725 551 q 564 670 601 551 q 562 694 562 680 l 562 708 q 673 846 562 805 q 711 852 707 852 m 618 703 l 618 700 q 692 610 618 636 q 716 608 707 608 q 803 681 777 608 q 806 703 806 692 q 730 792 806 765 q 708 795 715 795 q 624 735 659 795 q 618 703 618 716 z "},"R":{"ha":1519,"x_min":0,"x_max":1435,"o":"m 784 1446 q 1096 1248 967 1446 q 1099 1218 1099 1230 l 1099 1183 q 1096 1128 1099 1165 q 1147 1134 1128 1134 l 1150 1134 q 1413 917 1301 1134 q 1435 825 1435 858 l 1435 762 q 1386 610 1435 705 q 1394 529 1394 562 q 1142 165 1394 250 l 1050 146 q 784 0 918 0 l 743 0 q 553 65 665 0 q 193 296 283 65 q 168 372 176 372 q 0 662 0 507 l 0 686 q 71 887 0 784 q 68 928 68 914 l 68 974 q 260 1289 68 1189 q 423 1329 349 1329 q 486 1302 433 1329 q 692 1432 532 1385 q 784 1446 709 1440 m 513 1191 q 659 854 513 1066 q 741 876 695 876 q 844 836 792 876 l 849 836 q 1044 1199 1044 1010 q 920 1348 1044 1261 q 781 1389 852 1389 q 570 1313 684 1389 q 513 1191 513 1259 m 122 949 q 412 749 122 749 q 594 770 584 755 q 616 814 594 782 l 616 817 q 458 1175 458 1041 l 458 1202 q 464 1248 458 1226 q 412 1272 422 1272 q 239 1210 340 1272 q 122 949 122 1122 m 876 787 q 882 773 882 778 q 1053 787 977 787 q 1354 678 1265 787 l 1356 678 q 1381 795 1381 745 q 1234 1050 1381 930 q 1156 1077 1190 1077 l 1142 1077 q 1074 1050 1074 1070 q 939 838 1047 960 q 876 787 880 787 m 95 819 q 54 670 54 737 q 195 423 54 545 q 282 391 241 391 q 581 597 414 391 q 613 646 613 633 q 589 705 600 654 q 410 692 472 692 q 95 819 178 692 m 643 727 q 678 656 643 692 q 741 632 711 632 q 833 724 833 650 q 765 814 833 786 q 735 819 754 819 q 656 770 689 819 q 643 727 648 758 m 863 637 q 1104 293 1104 446 l 1104 274 q 1093 214 1104 254 l 1096 214 q 1275 320 1217 244 q 1337 521 1337 404 l 1337 537 q 1044 730 1337 730 q 890 713 890 724 q 863 637 890 684 m 656 600 q 285 334 456 334 q 241 339 253 334 l 241 336 q 339 184 268 244 q 548 122 424 122 q 749 401 749 122 l 749 423 q 735 575 749 496 q 656 600 703 575 m 792 586 q 806 410 806 492 q 651 84 806 144 l 651 79 q 768 54 720 54 q 1028 212 903 54 q 1047 282 1047 251 l 1047 296 q 895 534 1047 391 q 817 597 826 597 q 792 586 797 586 z "},"S":{"ha":1542,"x_min":0,"x_max":1506,"o":"m 749 1519 l 754 1519 q 882 1226 842 1519 q 884 1134 884 1170 l 884 1082 q 1240 1313 1117 1313 l 1253 1313 q 1305 1256 1299 1313 l 1305 1253 q 1085 903 1305 1131 q 1063 884 1063 888 l 1109 884 q 1497 779 1415 880 q 1506 746 1506 764 q 1345 643 1506 690 q 1137 618 1236 618 l 1072 618 q 1294 269 1294 389 l 1294 258 q 1242 206 1286 206 l 1229 206 q 884 426 1111 206 l 884 385 q 798 22 884 139 q 754 0 774 0 l 749 0 q 627 255 667 0 q 618 388 618 316 l 618 437 q 320 220 422 246 q 260 206 304 212 q 198 269 198 206 q 393 591 198 379 q 420 618 397 591 l 369 618 q 16 711 135 618 q 0 751 0 736 q 271 879 0 838 q 396 884 345 884 l 426 884 q 198 1242 198 1118 q 247 1299 205 1299 q 260 1302 247 1302 q 618 1072 385 1302 l 618 1131 q 713 1506 618 1393 q 749 1519 734 1519 m 675 1145 l 675 1104 q 697 974 675 986 q 735 925 730 925 q 765 922 750 925 q 822 1009 786 960 q 827 1101 827 1048 l 827 1147 q 757 1457 827 1341 l 751 1459 q 697 1329 711 1413 q 675 1145 675 1246 m 822 906 q 895 830 879 869 q 1074 977 947 853 q 1248 1256 1248 1166 l 1242 1256 q 1053 1158 1173 1251 q 854 955 905 1032 q 822 906 845 943 m 258 1245 l 255 1240 q 382 1015 268 1153 q 572 841 513 875 l 578 838 q 640 901 578 854 q 667 911 659 911 l 667 917 q 494 1109 622 993 q 258 1245 333 1245 m 613 760 q 684 665 613 701 q 730 654 706 654 l 738 654 q 852 738 819 654 q 854 760 854 749 l 854 762 q 760 865 854 837 q 738 868 749 868 l 735 868 q 616 781 648 868 q 613 760 613 766 m 62 751 q 171 700 79 726 q 393 673 290 673 q 505 692 505 673 q 559 727 556 727 q 556 773 556 759 q 559 781 559 779 q 486 825 499 825 q 410 827 450 827 l 377 827 q 76 765 197 827 q 62 751 62 754 m 911 773 l 911 743 q 1006 678 1002 678 l 1112 673 q 1435 741 1311 673 l 1443 751 q 1318 806 1419 782 q 1128 827 1223 827 l 1096 827 q 968 808 979 827 q 911 773 919 773 m 890 684 q 811 613 867 637 q 977 418 847 546 q 1234 263 1152 263 l 1237 263 q 1028 581 1237 365 q 955 643 1024 581 l 895 684 l 890 684 m 581 675 q 385 499 509 627 l 328 423 q 255 266 255 315 l 260 263 q 507 410 339 267 q 675 605 640 541 q 581 675 632 615 m 675 415 l 675 374 q 743 68 675 182 l 751 60 q 798 155 779 86 q 827 372 827 256 l 827 423 q 825 496 827 446 q 751 597 789 539 l 741 597 l 681 510 q 675 415 675 464 z "},"T":{"ha":1609,"x_min":0,"x_max":1546,"o":"m 784 1573 l 808 1573 q 933 1484 897 1573 l 933 1481 q 1080 1554 1004 1554 q 1251 1457 1171 1554 q 1272 1370 1272 1413 q 1183 1147 1272 1279 q 1264 1158 1221 1158 q 1476 1006 1400 1158 q 1546 789 1546 873 q 1451 651 1546 686 q 1525 510 1525 580 q 1432 339 1525 413 q 1343 312 1391 312 q 1093 420 1241 312 l 1093 418 q 1123 288 1123 348 l 1123 285 q 887 30 1123 113 q 765 0 817 0 l 743 0 q 616 92 654 0 l 613 92 q 472 19 548 19 q 304 111 385 19 q 277 203 277 160 q 366 423 277 291 q 290 412 328 412 l 279 412 q 35 635 118 412 q 0 773 0 715 l 0 784 q 92 920 0 884 l 92 922 q 19 1066 19 987 q 111 1232 19 1149 q 203 1259 159 1259 q 461 1142 304 1259 l 461 1145 q 426 1291 426 1228 q 751 1571 426 1488 q 784 1573 766 1573 m 483 1289 q 613 1006 483 1176 q 643 977 616 1006 q 743 1001 692 1001 l 770 1001 q 890 971 817 1001 q 1036 1082 949 1028 q 1128 1172 1084 1101 q 1215 1373 1215 1288 l 1215 1375 q 1093 1497 1215 1457 l 1077 1497 q 955 1411 1012 1497 q 917 1375 938 1375 l 914 1375 q 887 1411 887 1375 q 890 1413 887 1413 q 838 1511 890 1484 q 795 1519 808 1519 q 545 1419 702 1519 q 483 1289 483 1362 m 76 1061 q 165 939 76 998 q 201 901 201 922 q 130 871 201 871 q 57 798 57 852 l 57 776 q 155 532 57 680 q 274 469 209 469 l 293 469 q 534 575 393 469 q 486 716 486 641 l 486 743 q 591 949 486 854 q 203 1202 336 1202 q 79 1085 119 1202 q 76 1061 76 1070 m 936 936 q 1028 738 1028 848 l 1028 722 q 990 589 1028 655 q 1345 369 1209 369 q 1468 488 1426 369 l 1468 510 q 1351 648 1468 583 l 1345 667 l 1345 670 q 1373 697 1349 697 l 1392 697 q 1481 746 1456 697 q 1489 789 1489 774 q 1394 1034 1489 880 q 1259 1101 1340 1101 q 936 936 1126 1101 m 540 730 q 670 532 540 602 q 757 513 722 513 q 955 643 884 513 q 974 730 974 695 q 844 928 974 857 q 757 947 815 941 q 559 817 629 947 q 540 730 545 788 m 768 458 l 743 458 q 570 529 659 458 l 567 529 q 469 464 566 523 q 334 203 334 300 q 439 81 334 124 q 472 76 458 76 q 597 165 538 76 q 635 201 614 201 q 665 130 665 201 q 738 57 683 57 l 768 57 q 998 149 846 57 q 1066 277 1066 208 l 1066 285 q 958 543 1066 389 q 768 458 866 458 z "},"U":{"ha":1564,"x_min":0,"x_max":1519,"o":"m 659 1535 q 914 1443 797 1535 q 977 1297 977 1381 l 977 1289 q 1204 1470 1131 1428 l 1204 1465 q 1166 1204 1204 1338 q 1232 1215 1194 1215 l 1234 1215 q 1497 998 1385 1215 q 1519 906 1519 939 l 1519 844 q 1419 621 1519 747 q 1291 581 1383 595 l 1272 581 l 1272 578 q 1413 336 1373 443 l 1411 336 q 1145 418 1255 372 q 1185 285 1185 344 q 993 35 1185 146 q 865 0 925 0 l 819 0 q 583 106 707 0 q 545 266 545 180 l 545 288 q 315 152 431 201 q 307 149 312 152 l 307 152 q 380 399 336 284 q 241 374 304 374 q 76 488 183 374 q 0 700 0 581 q 76 933 0 817 q 241 1015 143 1015 l 247 1015 q 49 1256 111 1158 l 54 1256 q 345 1210 192 1256 l 345 1213 q 336 1275 336 1238 l 336 1313 q 499 1495 382 1423 q 659 1535 572 1535 m 391 1294 q 600 936 391 1106 l 648 903 q 743 936 686 936 q 784 930 754 936 q 922 1286 922 1155 q 779 1454 922 1406 q 659 1478 714 1478 l 651 1478 q 391 1299 497 1478 l 391 1294 m 860 947 l 863 947 q 1088 1169 972 1097 q 1128 1291 1101 1169 q 1139 1351 1139 1345 q 968 1196 1078 1310 q 868 958 958 1126 q 860 947 864 958 m 168 1191 q 345 1004 219 1120 q 494 949 424 985 l 494 952 q 363 1139 406 1040 q 168 1191 224 1191 m 871 863 q 892 779 892 827 l 892 768 q 1080 665 986 692 q 1232 635 1154 635 l 1240 635 q 1386 670 1329 635 q 1465 876 1465 778 q 1318 1131 1465 1011 q 1240 1158 1274 1158 l 1226 1158 q 871 863 1087 1158 m 57 697 l 57 692 q 222 439 57 545 q 244 431 236 431 q 594 629 430 431 q 632 684 618 659 q 591 779 591 724 l 591 789 q 594 830 591 803 q 266 958 378 958 l 241 958 q 81 817 128 958 q 57 697 57 754 m 646 787 q 681 716 646 752 q 743 692 713 692 q 836 784 836 710 q 768 873 836 846 q 738 879 757 879 q 659 830 692 879 q 646 787 651 817 m 860 692 q 1085 505 939 648 q 1305 426 1272 426 q 1194 578 1267 497 q 1036 616 1116 589 q 873 708 951 653 q 860 692 870 708 m 600 282 q 651 125 610 135 q 846 54 747 54 q 1104 206 982 54 q 1128 285 1128 251 q 865 618 1128 422 q 814 654 832 643 q 738 632 800 643 q 600 282 600 449 m 635 589 q 488 450 555 492 q 448 410 448 435 q 393 258 426 364 l 396 258 q 553 372 453 284 q 637 589 553 438 l 635 589 z "},"V":{"ha":1588,"x_min":0,"x_max":1519,"o":"m 757 1519 l 773 1519 q 917 1413 884 1519 q 928 1326 928 1363 q 865 1020 928 1211 l 865 1017 l 868 1017 q 952 1169 887 1065 q 1175 1348 1076 1348 l 1194 1348 q 1340 1242 1271 1348 q 1354 1183 1354 1208 q 1020 871 1354 1038 l 1020 868 l 1023 868 q 1324 928 1202 928 q 1511 819 1472 928 q 1519 762 1519 791 l 1519 746 q 1424 605 1519 644 q 1329 591 1367 591 q 1020 654 1210 591 l 1017 654 l 1017 651 q 1169 567 1065 632 q 1348 345 1348 444 l 1348 331 q 1242 179 1348 248 q 1183 165 1208 165 q 865 510 1036 165 l 863 510 l 863 507 q 928 190 928 313 q 830 8 928 47 q 773 0 802 0 l 762 0 q 591 201 591 0 q 651 496 591 314 l 651 499 l 648 499 q 334 165 481 165 q 182 279 247 165 q 171 331 171 306 l 171 345 q 448 624 171 471 q 502 651 448 628 l 502 654 l 499 654 q 190 591 309 591 q 8 689 47 591 q 0 746 0 718 l 0 762 q 125 920 0 886 q 198 928 173 928 q 496 868 315 928 l 499 868 l 499 871 q 165 1185 165 1038 q 290 1343 165 1278 q 326 1348 315 1348 l 345 1348 q 646 1031 481 1348 l 646 1028 l 648 1028 l 648 1031 q 591 1321 591 1207 q 700 1511 591 1473 q 757 1519 728 1519 m 648 1316 q 746 928 648 1186 l 768 928 q 817 1061 785 955 q 871 1332 871 1221 q 776 1462 871 1462 l 757 1462 q 648 1316 648 1462 m 222 1183 q 393 996 222 1109 q 635 871 490 932 q 648 890 648 885 q 483 1188 587 1040 q 342 1291 393 1291 l 328 1291 q 228 1210 279 1291 q 222 1183 222 1190 m 871 884 l 887 871 q 1196 1044 1062 946 q 1297 1185 1297 1131 q 1207 1289 1297 1240 q 1183 1291 1192 1291 q 901 955 1064 1291 q 871 884 871 895 m 57 762 l 57 743 q 193 648 57 648 q 591 749 332 648 l 591 773 q 198 871 336 871 q 57 762 57 871 m 646 757 q 713 656 646 698 q 760 646 749 646 q 846 689 806 646 q 873 757 866 711 q 792 865 873 829 q 757 871 765 871 q 651 792 691 871 q 646 757 651 789 m 928 773 l 928 751 q 1058 703 938 741 q 1332 648 1223 648 q 1459 722 1441 648 q 1462 743 1462 732 l 1462 765 q 1316 871 1462 871 q 928 773 1185 871 m 228 336 q 309 228 228 277 q 336 222 330 222 q 486 339 394 222 q 648 632 572 456 l 629 648 q 328 480 459 577 q 228 336 228 397 m 887 648 q 871 632 887 644 q 1036 334 934 480 q 1185 222 1126 222 q 1280 296 1230 222 q 1291 336 1291 313 l 1291 342 q 1050 572 1291 430 q 887 648 965 616 m 648 195 q 705 68 648 101 q 754 57 735 57 l 776 57 q 871 193 871 57 q 770 591 871 332 l 751 591 q 697 448 741 591 q 648 195 648 304 z "},"W":{"ha":1583,"x_min":0,"x_max":1522,"o":"m 762 1519 l 784 1519 q 1039 1397 913 1519 l 1042 1397 q 1302 1294 1177 1397 q 1405 1042 1405 1189 l 1405 1020 q 1522 746 1522 880 q 1397 480 1522 610 l 1397 475 q 1316 241 1397 364 q 1028 114 1209 114 q 781 0 910 0 l 773 0 q 502 114 635 0 l 491 114 q 136 391 216 114 q 119 488 127 427 q 0 749 0 603 q 114 1017 0 882 l 114 1028 q 407 1389 114 1313 q 488 1400 455 1397 q 496 1397 494 1397 q 637 1492 547 1452 q 762 1519 707 1519 m 567 1383 q 684 1275 635 1356 q 760 936 760 1116 l 762 936 q 873 1326 762 1177 q 963 1386 926 1378 q 773 1465 873 1465 q 567 1383 673 1465 m 171 1031 l 171 1001 q 293 871 171 957 q 572 798 419 798 l 613 798 q 681 890 629 855 q 705 903 705 899 q 643 1229 705 1078 q 486 1343 585 1343 q 296 1283 406 1343 q 171 1031 171 1195 m 817 901 q 895 830 850 892 q 906 798 906 801 l 949 798 q 1329 960 1189 798 q 1351 1025 1351 980 q 1177 1308 1351 1227 q 1034 1343 1088 1343 q 833 1080 882 1343 q 817 901 817 987 m 127 947 q 57 754 57 836 l 57 743 q 130 559 57 648 l 130 556 l 155 597 q 317 713 193 669 q 461 749 376 735 l 461 751 q 236 838 366 760 q 127 947 176 885 m 1389 947 q 1166 779 1320 840 q 1055 751 1085 751 l 1055 749 q 1248 697 1166 732 q 1386 559 1360 640 l 1386 556 q 1465 746 1465 646 q 1389 947 1465 845 m 665 760 q 738 670 665 695 q 760 667 749 667 q 852 741 828 667 q 854 760 854 751 q 773 854 854 830 l 757 854 q 667 781 694 854 q 665 760 665 766 m 179 494 l 179 486 q 282 241 179 354 q 486 171 371 171 l 524 171 q 678 347 606 203 q 724 616 724 454 l 722 616 q 648 659 692 619 q 618 705 625 688 q 309 651 463 705 q 179 494 179 591 m 901 705 q 822 624 876 647 q 798 616 804 616 l 798 581 q 968 184 798 322 q 996 171 986 171 l 1042 171 q 1294 315 1207 171 q 1343 488 1343 412 q 1058 692 1343 644 q 901 705 970 703 m 760 415 q 692 252 735 319 q 575 133 632 167 l 575 130 q 762 57 675 57 l 784 57 q 952 122 863 57 l 955 127 q 770 382 833 195 q 762 415 762 402 l 760 415 z "},"X":{"ha":1604,"x_min":0,"x_max":1519,"o":"m 776 1519 q 865 1221 822 1413 q 884 1072 879 1144 q 1107 1223 1004 1187 q 1308 1286 1265 1286 l 1308 1283 q 1175 1031 1263 1179 q 1069 892 1118 950 l 1074 892 q 1519 746 1297 892 l 1519 743 q 1077 637 1234 637 l 1074 632 q 1202 464 1147 564 q 1289 212 1249 372 l 1286 212 q 1009 361 1150 269 q 892 450 929 419 q 822 103 892 345 q 781 0 791 12 q 635 448 635 224 q 342 252 503 335 q 239 206 243 206 l 239 209 q 298 404 266 326 q 453 629 349 526 l 448 629 q 0 735 291 629 q 111 803 3 743 q 429 884 282 884 l 448 884 q 293 1104 350 1002 q 206 1280 224 1236 l 212 1280 q 483 1183 313 1265 q 629 1069 546 1147 l 627 1085 q 776 1519 627 1295 m 684 1093 q 757 860 684 966 l 773 860 q 789 911 778 860 l 827 998 l 827 1047 q 765 1383 827 1177 q 711 1259 744 1358 q 684 1093 684 1169 m 830 830 q 849 806 839 826 q 1104 1031 985 852 q 1204 1199 1154 1102 l 1202 1199 q 1017 1112 1115 1172 q 838 873 884 1021 q 830 830 830 848 m 312 1191 q 453 966 368 1081 q 662 806 591 806 q 684 838 684 835 q 581 1036 675 924 q 366 1175 474 1137 q 312 1191 328 1191 m 863 751 l 863 746 q 914 730 863 741 q 1001 692 997 692 l 1042 692 q 1383 754 1172 692 l 1383 760 q 1099 836 1221 836 l 1090 836 q 971 803 995 836 q 863 751 895 755 m 136 751 q 288 708 136 742 q 491 684 393 684 l 521 684 q 591 716 525 684 q 651 738 651 734 l 651 741 q 597 765 651 747 l 513 819 q 437 827 475 827 l 418 827 q 136 751 296 827 m 705 754 q 754 705 713 705 l 757 705 q 806 749 806 714 l 806 757 q 754 806 806 797 q 705 757 705 793 l 705 754 m 838 686 q 808 662 825 670 q 1202 315 866 490 q 1088 537 1160 437 q 911 670 989 644 q 838 686 869 686 m 326 309 q 613 505 473 382 q 713 656 713 610 l 675 681 q 507 602 622 681 q 380 442 421 521 q 326 309 326 325 m 762 618 q 700 513 761 597 q 692 423 692 467 q 768 136 692 298 l 773 136 q 836 477 836 347 l 836 502 q 787 572 836 511 q 762 618 766 618 z "},"Y":{"ha":1642,"x_min":0,"x_max":1573,"o":"m 681 1576 q 781 1565 737 1576 q 890 1576 834 1576 q 1286 1506 1122 1576 q 1375 1381 1375 1449 l 1375 1378 q 1535 1204 1480 1378 q 1573 890 1573 1040 q 1563 784 1573 823 q 1573 678 1573 743 q 1508 298 1573 465 q 1375 198 1452 198 l 1375 195 q 1313 90 1375 139 q 1158 27 1262 52 q 887 0 1000 0 q 784 11 827 0 q 678 0 736 0 q 304 62 473 0 q 198 198 198 121 q 33 399 84 198 q 0 684 0 555 q 11 784 0 729 q 0 895 0 838 q 54 1251 0 1080 q 198 1378 111 1378 q 369 1535 198 1483 q 681 1576 525 1576 m 252 1364 q 678 906 252 1213 q 789 949 721 949 q 895 906 850 949 q 1321 1367 1321 1210 q 963 1516 1321 1491 q 890 1519 943 1519 l 871 1519 l 871 1516 q 890 1462 890 1491 l 890 1449 q 800 1283 890 1385 q 751 1245 770 1245 l 749 1245 q 659 1370 713 1245 q 646 1432 651 1385 q 681 1519 646 1476 l 675 1519 q 328 1462 486 1519 q 252 1364 252 1421 m 703 1432 q 754 1316 703 1380 q 833 1449 833 1409 l 833 1459 q 776 1506 833 1497 q 703 1432 703 1485 m 57 884 l 57 871 q 119 892 90 892 q 328 765 206 892 l 331 751 l 331 749 q 203 659 331 713 q 149 648 176 648 l 136 648 q 57 681 100 648 l 57 675 q 119 317 57 475 q 198 255 161 255 l 203 255 q 304 426 212 314 q 551 648 444 573 q 640 716 639 711 q 624 789 624 755 q 643 863 624 823 q 347 1101 525 937 q 203 1321 208 1255 l 198 1321 q 92 1180 132 1321 q 57 884 57 1036 m 1370 1321 q 1275 1156 1367 1270 q 1047 947 1143 1015 l 933 860 l 933 857 q 949 784 949 824 q 933 713 949 757 q 1229 472 1053 635 q 1370 260 1356 332 l 1370 255 l 1375 255 q 1489 423 1449 255 q 1516 673 1516 568 l 1516 681 q 1438 648 1475 648 l 1424 648 q 1248 732 1349 648 l 1242 751 q 1364 863 1246 787 q 1457 892 1415 892 q 1516 871 1483 892 l 1516 895 q 1451 1264 1516 1116 q 1375 1321 1412 1321 l 1370 1321 m 681 787 q 757 686 681 715 q 787 681 768 681 q 887 757 858 681 q 892 787 892 768 q 798 892 892 869 l 784 892 q 681 798 705 892 l 681 787 m 71 784 q 136 705 89 705 l 149 705 q 260 754 197 705 q 117 836 170 836 q 71 784 86 836 m 1313 751 q 1424 705 1383 705 l 1438 705 q 1506 781 1482 705 q 1454 836 1489 836 q 1313 751 1402 836 m 252 212 q 502 71 252 104 q 675 57 606 57 l 681 57 q 646 144 646 100 q 730 326 646 220 l 749 331 l 751 331 q 863 209 783 330 q 890 127 890 159 l 890 114 q 871 60 890 85 l 871 57 l 898 57 q 1213 100 1048 57 q 1321 212 1321 141 q 1147 469 1321 305 q 895 667 985 615 q 784 624 850 624 q 675 667 728 624 q 434 475 576 604 q 252 212 252 307 m 751 260 q 703 141 703 190 q 779 68 703 93 q 833 117 833 83 l 833 127 q 751 260 833 171 z "},"Z":{"ha":1563,"x_min":0,"x_max":1519,"o":"m 757 1519 l 762 1519 q 871 1318 833 1519 l 876 1318 q 1034 1462 971 1462 l 1042 1462 q 1096 1392 1083 1462 l 1096 1337 q 1085 1242 1096 1301 q 1259 1313 1193 1313 q 1313 1253 1313 1313 q 1210 1039 1313 1181 q 1348 1055 1278 1055 l 1351 1055 q 1478 1012 1451 1055 l 1481 998 l 1481 987 q 1370 860 1481 940 q 1519 762 1519 822 l 1519 757 q 1318 648 1519 686 l 1318 643 q 1462 486 1462 548 l 1462 477 q 1392 423 1462 436 l 1337 423 q 1242 434 1301 423 q 1313 260 1313 326 q 1253 206 1313 206 q 1039 309 1181 206 q 1055 171 1055 241 l 1055 168 q 993 38 1055 38 l 987 38 q 860 149 940 38 q 762 0 822 0 l 757 0 q 648 201 686 0 l 643 201 q 486 57 548 57 l 477 57 q 423 127 436 57 l 423 182 q 434 277 423 218 q 260 206 326 206 q 206 266 206 206 q 309 480 206 338 q 171 464 241 464 l 168 464 q 41 507 68 464 l 38 521 l 38 532 q 149 659 38 579 q 0 757 0 697 l 0 762 q 201 871 0 833 l 201 876 q 57 1034 57 971 l 57 1042 q 127 1096 57 1083 l 182 1096 q 277 1085 218 1096 q 206 1259 206 1193 q 266 1313 206 1313 q 480 1210 338 1313 q 464 1348 464 1278 l 464 1351 q 526 1481 464 1481 l 532 1481 q 659 1370 579 1481 q 757 1519 697 1519 m 700 1297 q 770 1115 748 1201 l 773 1115 l 825 1237 q 773 1443 825 1324 l 760 1457 q 705 1326 731 1430 q 700 1297 704 1297 m 532 1421 q 521 1359 521 1394 l 521 1340 q 640 936 521 1174 q 719 863 643 926 l 719 865 q 738 1012 719 916 q 605 1348 715 1154 q 532 1421 545 1421 m 776 868 l 776 854 q 814 838 800 849 l 817 838 q 944 1023 898 920 q 1042 1356 1042 1225 q 1031 1402 1038 1402 q 917 1280 981 1375 q 776 868 776 1029 m 263 1256 q 372 1058 273 1178 q 553 982 467 1027 q 502 1115 529 1038 q 263 1256 334 1256 m 982 966 q 1115 1017 1038 990 q 1256 1256 1256 1186 q 1058 1147 1173 1244 q 982 966 1027 1053 m 117 1031 q 486 806 205 901 q 651 776 586 776 l 665 776 q 681 814 670 800 l 681 817 q 464 960 583 911 q 163 1042 279 1042 q 117 1031 117 1038 m 863 800 l 865 800 q 1012 781 916 800 q 1256 863 1065 784 q 1416 977 1347 905 l 1421 987 q 1359 998 1394 998 l 1340 998 q 936 879 1173 998 q 863 800 926 876 m 62 760 q 184 708 90 731 q 222 700 222 703 q 404 770 318 748 l 404 773 l 282 825 l 279 825 q 76 773 184 822 q 62 760 62 761 m 1115 749 l 1115 746 l 1237 694 q 1438 746 1402 714 q 1457 760 1457 753 q 1326 814 1433 787 q 1297 819 1297 815 q 1115 749 1201 771 m 722 762 l 722 757 q 757 722 730 722 l 762 722 q 798 757 798 730 l 798 762 q 762 798 789 798 l 757 798 q 722 762 722 789 m 854 743 q 838 705 849 720 l 838 703 q 1044 564 937 608 q 1356 477 1236 477 q 1402 488 1402 481 q 1034 713 1314 619 q 868 743 933 743 l 854 743 m 98 532 q 163 521 130 521 l 176 521 q 583 640 345 521 q 656 719 593 643 l 654 719 q 507 738 604 719 q 279 665 465 738 q 114 553 172 614 q 98 532 108 552 m 477 163 q 488 117 481 117 q 665 358 581 176 q 743 651 743 539 l 743 665 q 705 681 720 670 l 703 681 q 559 464 602 574 q 477 163 477 279 m 800 656 l 800 654 q 781 507 800 604 q 914 171 802 366 q 987 98 974 98 q 998 163 998 130 l 998 176 q 879 583 998 346 q 800 656 876 593 m 263 263 q 461 372 341 273 q 537 553 493 467 q 404 502 481 529 q 263 263 263 334 m 966 537 q 1017 404 990 481 q 1251 263 1158 281 l 1253 263 q 1256 266 1253 266 q 1147 461 1246 341 q 966 537 1053 493 m 746 404 l 694 282 l 694 279 q 746 76 694 197 q 760 62 757 62 q 811 184 788 90 q 819 222 816 222 q 749 404 771 318 l 746 404 z "},"[":{"ha":514,"x_min":0,"x_max":0,"o":""},"\\":{"ha":386,"x_min":0,"x_max":0,"o":""},"]":{"ha":514,"x_min":0,"x_max":0,"o":""},"^":{"ha":688,"x_min":0,"x_max":0,"o":""},"_":{"ha":694,"x_min":0,"x_max":0,"o":""},"`":{"ha":694,"x_min":0,"x_max":0,"o":""},"a":{"ha":1635,"x_min":0,"x_max":1576,"o":"m 610 1573 l 637 1573 q 779 1476 734 1573 l 779 1473 l 803 1514 q 922 1573 856 1573 l 952 1573 q 1185 1416 1094 1573 q 1213 1278 1213 1346 l 1213 1259 q 1210 1213 1213 1244 l 1242 1215 l 1294 1215 q 1554 1050 1463 1215 q 1576 939 1576 987 q 1473 787 1576 827 l 1516 760 q 1576 624 1576 712 q 1427 385 1576 477 q 1278 353 1356 353 l 1270 353 q 1210 355 1251 353 q 1213 315 1213 328 l 1213 293 q 1034 16 1213 100 q 949 0 987 0 l 925 0 q 781 100 827 0 l 779 100 q 716 22 770 61 q 637 0 673 0 l 613 0 q 377 157 466 0 q 350 288 350 219 l 350 342 l 353 355 l 326 353 l 290 353 q 19 526 105 353 q 0 624 0 576 l 0 629 q 103 784 0 742 l 103 787 q 0 939 0 825 l 0 944 q 76 1128 0 1048 q 288 1215 163 1215 l 353 1215 l 350 1234 l 350 1294 q 521 1554 350 1468 q 610 1573 569 1573 m 404 1272 q 420 1202 404 1202 q 678 1044 572 1162 q 654 1123 678 1048 l 654 1126 l 656 1126 q 727 982 715 992 l 697 1139 l 697 1142 l 700 1142 l 749 985 l 751 985 l 751 993 l 743 1139 l 743 1147 l 746 1147 l 776 979 l 779 979 l 787 1150 l 789 1150 q 800 979 792 1138 l 803 979 l 833 1150 l 836 1150 l 836 1142 q 825 979 827 997 l 825 977 l 827 977 l 879 1145 l 882 1145 l 882 1142 q 852 987 857 1006 l 854 987 q 920 1120 879 1027 l 922 1120 l 922 1118 q 901 1050 917 1095 l 903 1050 q 1063 1166 1006 1152 q 1150 1202 1080 1179 q 1156 1261 1156 1242 l 1156 1280 q 1012 1503 1156 1432 q 939 1519 979 1516 q 830 1419 830 1503 q 846 1392 830 1402 q 871 1430 846 1422 l 887 1430 q 928 1383 922 1430 q 871 1326 917 1326 l 860 1326 q 779 1378 813 1326 q 700 1326 756 1326 l 689 1326 q 635 1389 640 1326 q 670 1430 642 1430 l 686 1430 q 716 1392 712 1430 q 732 1424 725 1392 q 656 1514 732 1480 l 624 1519 q 445 1416 522 1519 q 404 1272 404 1350 m 57 949 l 57 936 q 130 838 57 866 q 152 833 147 833 q 182 849 182 839 q 144 882 144 853 l 144 887 q 190 930 144 926 q 250 868 242 930 l 250 865 q 195 787 250 812 q 250 700 250 754 q 195 640 241 640 l 179 640 q 144 681 149 640 l 144 684 q 184 719 144 719 q 149 735 174 735 q 60 656 90 735 q 57 629 57 642 l 57 618 q 176 437 57 517 q 290 410 239 410 l 307 410 q 600 532 464 410 l 662 629 q 543 518 656 629 l 537 515 l 537 518 l 643 646 l 643 648 l 513 553 l 510 553 l 627 667 q 480 589 503 599 q 616 686 610 686 l 616 689 l 613 689 q 456 627 459 627 l 453 627 l 453 629 l 602 708 l 602 711 l 600 711 l 439 670 l 437 670 l 437 673 l 594 732 l 594 735 l 591 735 q 437 716 448 716 l 431 716 l 431 719 l 589 757 l 589 760 l 420 760 l 420 762 l 589 784 l 589 787 l 418 806 l 418 808 l 594 808 l 594 811 l 423 852 l 423 854 l 429 854 l 594 833 l 597 833 l 597 836 l 439 895 l 439 898 l 445 898 l 602 857 l 605 857 l 605 860 l 461 936 l 461 939 l 464 939 q 616 879 473 937 l 616 882 q 477 982 508 957 l 480 982 l 629 901 l 629 903 q 507 1017 624 903 l 510 1017 l 646 920 l 646 922 q 543 1044 641 924 l 543 1047 q 659 939 549 1045 l 665 936 l 665 939 q 583 1055 597 1041 q 298 1161 442 1161 q 71 1015 143 1161 q 57 949 57 975 m 914 936 l 917 936 q 1036 1050 918 940 l 1039 1050 l 933 920 l 936 920 q 1072 1020 943 926 l 1074 1020 l 949 901 q 1096 979 1092 979 l 963 879 q 1120 941 1117 941 l 1123 941 l 1123 939 l 974 860 l 974 857 l 977 857 q 1137 898 1066 882 l 1139 898 l 1139 895 q 982 836 1135 895 l 982 833 l 1150 854 l 1153 854 l 1153 852 q 985 811 989 811 l 985 808 l 1161 808 l 1161 806 l 990 787 l 990 784 l 1158 762 l 1158 760 l 990 760 l 990 757 l 1147 719 l 1147 716 l 1139 716 l 985 735 l 982 735 l 982 732 l 1142 673 l 1142 670 l 1137 670 l 979 711 l 977 711 l 977 708 q 1123 627 1120 632 l 1120 627 l 966 689 l 963 689 l 963 686 q 1093 591 1075 610 l 1090 591 l 947 670 l 947 667 q 1069 553 953 667 l 1066 553 q 933 648 936 648 l 933 646 q 1036 524 940 642 l 1036 521 l 914 632 l 914 629 q 993 515 989 515 q 1270 410 1126 410 l 1280 410 q 1511 572 1446 410 q 1519 629 1519 606 q 1435 735 1519 707 l 1421 735 q 1392 719 1402 735 q 1432 681 1432 719 q 1392 640 1426 640 l 1378 640 q 1326 697 1335 640 l 1326 703 q 1378 781 1326 759 l 1378 787 q 1326 871 1326 810 q 1386 930 1333 930 q 1432 887 1432 926 q 1392 849 1432 849 q 1424 833 1407 833 q 1519 947 1519 851 q 1394 1134 1519 1056 q 1275 1161 1333 1161 q 979 1042 1119 1161 q 914 936 968 1019 m 922 1128 l 925 1128 l 925 1120 l 922 1120 l 922 1128 m 1096 982 l 1101 982 l 1101 979 l 1096 979 l 1096 982 m 456 941 l 461 941 l 461 939 l 456 939 l 456 941 m 656 789 l 659 784 q 656 776 656 779 q 705 681 656 732 q 789 651 754 651 q 906 724 859 651 q 922 784 918 745 q 817 914 922 876 q 787 917 805 914 q 662 819 702 917 q 656 789 656 794 m 423 716 l 431 716 l 431 713 l 423 713 l 423 716 m 1147 716 l 1153 716 l 1153 713 l 1147 713 l 1147 716 m 825 591 q 836 426 827 574 l 836 418 l 833 418 l 803 589 l 800 589 q 789 418 792 430 l 787 418 l 779 589 l 776 589 q 746 420 746 430 l 743 420 l 743 431 l 751 581 l 751 586 l 749 586 l 700 426 l 697 426 l 697 431 l 727 586 l 727 589 l 724 589 q 656 442 656 448 l 654 442 l 654 445 l 678 524 q 613 458 614 465 l 608 461 q 412 366 523 391 q 404 301 408 345 q 524 84 404 157 q 613 57 570 57 l 632 57 q 730 136 701 57 l 732 155 q 716 182 723 182 q 681 144 716 144 l 675 144 q 635 190 635 144 q 689 247 644 247 l 703 247 q 779 195 755 247 q 852 247 816 247 l 873 247 q 928 187 918 247 q 890 144 918 144 l 876 144 q 846 182 846 144 q 830 155 830 171 l 830 146 q 860 84 830 121 q 930 57 897 57 l 949 57 q 1112 152 1037 57 q 1156 293 1156 216 l 1156 312 q 1142 372 1156 372 q 901 521 1029 393 l 901 518 q 925 445 903 514 l 925 442 l 922 442 q 854 583 884 530 l 852 583 l 882 429 l 882 426 l 879 426 l 827 591 l 825 591 m 1093 591 l 1096 591 q 1101 586 1101 591 l 1099 586 q 1093 591 1093 586 z "},"b":{"ha":1463,"x_min":0,"x_max":1443,"o":"m 616 1519 l 632 1519 q 860 1459 736 1519 q 960 1364 922 1431 l 968 1337 l 971 1337 q 1074 1402 1041 1388 l 1074 1400 q 1004 1042 1074 1306 l 968 952 q 1185 990 1072 990 q 1443 952 1299 990 l 1443 949 q 1264 822 1325 856 q 1337 724 1321 779 q 1345 656 1345 677 l 1345 632 q 1308 488 1345 563 q 1386 369 1370 410 l 1383 369 q 1234 391 1377 369 q 1145 309 1208 357 q 1009 260 1075 260 q 974 263 1008 260 l 974 260 q 939 0 974 144 l 933 0 q 817 163 817 156 q 694 393 745 270 l 692 393 q 437 79 646 293 l 393 41 l 391 41 q 385 138 385 81 l 385 203 q 388 250 385 218 l 385 250 q 309 231 349 231 q 127 320 233 231 q 41 469 61 401 q 0 472 34 469 q 30 507 12 492 q 8 651 8 595 q 73 798 8 736 q 212 860 124 842 q 225 865 225 860 q 30 1053 193 880 l 27 1058 l 30 1058 q 152 1063 119 1063 q 483 990 342 1063 l 483 993 q 345 1313 345 1182 q 551 1514 345 1455 q 616 1519 585 1519 m 486 1430 q 659 1234 631 1291 q 738 1069 720 1137 l 741 1069 q 863 1245 760 1131 l 920 1297 q 846 1402 920 1350 q 637 1462 723 1462 l 608 1462 q 486 1430 554 1462 m 401 1308 q 464 1126 401 1243 l 467 1126 l 467 1128 q 456 1313 456 1228 l 456 1405 l 453 1405 q 401 1308 401 1369 m 510 1324 l 513 1318 l 513 1299 q 610 857 513 1024 q 648 817 641 817 q 684 841 684 830 q 697 928 697 886 l 697 960 q 562 1270 697 1099 q 510 1324 514 1324 m 754 879 q 773 814 754 814 l 776 814 q 879 906 850 892 q 971 1137 926 981 q 1001 1286 990 1216 q 754 879 754 1102 m 155 1006 q 401 808 316 850 q 480 768 418 795 l 494 770 q 608 757 556 770 l 610 770 q 526 892 559 817 q 155 1006 381 1006 m 811 762 q 825 730 817 730 q 854 727 843 727 l 879 727 q 1310 920 1027 727 l 1310 922 q 1180 933 1242 933 q 811 762 941 933 m 65 654 q 76 562 68 599 q 334 735 242 712 q 380 751 334 740 q 285 811 294 811 q 114 757 191 811 q 65 654 65 709 m 1202 784 q 1055 711 1155 751 l 1053 711 l 1053 705 q 1267 543 1128 685 l 1270 543 q 1291 643 1291 610 q 1256 754 1291 707 q 1202 784 1216 784 m 659 727 q 708 678 671 678 l 711 678 q 760 727 751 678 q 708 779 749 779 q 659 730 659 766 l 659 727 m 125 524 q 586 621 409 524 q 627 659 627 654 q 591 703 608 703 q 502 713 543 713 q 125 524 314 713 m 873 670 l 854 670 q 803 675 836 670 l 800 670 q 892 564 873 602 q 1270 442 1028 486 l 1270 445 q 1044 648 1161 589 q 955 678 975 678 q 873 670 907 670 m 711 578 q 906 136 711 413 l 909 136 q 917 252 917 212 l 917 266 q 822 564 917 439 q 751 629 766 629 l 716 618 q 711 578 713 616 m 439 165 q 646 429 607 342 q 667 475 667 463 q 656 562 656 533 l 656 602 q 553 540 608 564 q 439 165 439 388 m 138 469 l 103 469 l 103 467 q 250 307 156 347 q 315 288 293 288 q 399 328 347 288 q 448 480 415 408 q 461 507 453 482 l 458 507 q 138 469 311 469 m 936 477 q 971 326 971 377 q 1017 317 993 317 q 1166 404 1074 317 q 936 477 1053 429 z "},"c":{"ha":1579,"x_min":0,"x_max":1522,"o":"m 583 1519 l 586 1519 q 735 1351 696 1417 q 765 1305 762 1305 q 911 1481 800 1371 l 930 1497 q 1001 1354 1001 1375 q 1161 1405 1087 1389 q 1164 1359 1164 1373 q 1145 1166 1164 1259 q 1335 1191 1244 1191 l 1408 1191 q 1413 1185 1413 1190 q 1351 1006 1385 1075 l 1351 1004 q 1495 933 1367 1004 l 1495 930 q 1316 773 1390 819 q 1522 600 1404 727 q 1364 521 1459 560 q 1354 515 1354 521 q 1413 342 1385 458 l 1408 339 l 1335 339 q 1145 363 1244 339 q 1164 165 1164 273 q 1161 125 1164 159 q 1006 176 1082 141 q 920 0 972 77 q 751 201 783 132 q 749 206 749 201 q 594 27 700 130 l 591 27 q 532 136 557 74 q 510 174 517 174 q 361 125 395 127 q 358 179 361 155 q 380 377 358 260 l 377 377 q 155 350 268 350 l 141 350 q 100 353 127 350 l 100 355 q 157 524 100 393 q 24 591 140 524 l 24 594 q 217 754 163 734 l 217 760 q 100 838 198 764 q 0 939 21 909 q 152 1015 78 987 l 152 1017 q 100 1177 104 1130 l 103 1177 q 141 1180 126 1180 l 146 1180 q 380 1153 266 1180 l 380 1156 q 358 1351 358 1267 q 361 1405 361 1375 l 363 1405 q 505 1359 428 1392 q 583 1519 519 1418 m 594 1427 q 529 1188 529 1295 q 567 1023 529 1112 q 570 1009 567 1014 q 513 952 559 952 q 426 979 506 952 q 334 993 378 993 q 92 925 225 993 l 92 922 q 258 798 159 861 q 277 757 277 774 q 206 681 277 718 q 119 608 142 630 l 117 608 q 255 551 156 579 q 361 537 323 537 q 494 562 405 537 l 518 562 q 562 515 549 562 l 562 502 q 537 377 537 415 l 537 353 q 602 119 537 250 l 605 119 q 705 247 664 184 q 738 263 726 263 l 757 263 q 841 168 786 263 q 909 92 897 100 q 977 334 977 234 q 920 532 977 419 l 917 548 q 963 602 927 602 l 985 602 l 1082 562 q 1188 545 1147 545 q 1427 613 1294 545 l 1427 616 q 1278 730 1351 687 q 1259 765 1259 751 l 1259 779 q 1329 854 1259 814 q 1402 920 1388 901 q 1164 985 1268 985 l 1153 985 q 1012 958 1107 985 q 958 1006 958 972 l 958 1023 q 985 1164 985 1116 q 917 1402 985 1266 l 914 1402 q 806 1261 841 1321 q 765 1245 779 1248 q 692 1313 723 1245 q 597 1427 646 1379 l 594 1427 m 415 1332 q 439 1150 420 1230 q 382 1093 424 1093 q 174 1123 257 1123 l 174 1120 q 209 1034 195 1057 q 331 1050 274 1047 q 510 1012 416 1050 l 510 1015 q 472 1191 472 1095 q 486 1305 472 1228 q 415 1332 449 1321 m 1023 1297 q 1039 1172 1039 1223 l 1039 1150 q 1015 1017 1039 1084 l 1017 1017 q 1164 1042 1090 1042 q 1294 1023 1226 1042 q 1340 1134 1324 1085 l 1329 1134 q 1142 1109 1262 1134 l 1137 1109 q 1096 1139 1096 1120 q 1088 1158 1090 1140 l 1088 1164 q 1107 1332 1107 1282 q 1023 1297 1051 1314 m 751 939 l 754 939 q 925 803 885 939 l 928 770 q 814 616 928 671 q 754 608 771 608 q 594 722 645 608 q 586 768 586 743 l 586 781 q 700 930 586 879 q 751 939 734 939 m 643 776 l 643 770 q 732 667 643 698 l 760 665 q 868 751 834 665 l 871 779 q 808 871 871 827 q 760 882 777 882 l 754 882 q 646 798 677 882 q 643 776 643 787 m 977 545 l 977 543 q 1031 345 1031 446 l 1031 320 q 1020 233 1031 271 q 1107 198 1040 222 l 1107 203 q 1088 361 1107 255 q 1134 418 1096 418 l 1150 418 q 1324 396 1273 396 l 1329 396 l 1340 393 q 1297 502 1340 406 l 1294 502 q 1188 488 1246 491 q 977 545 1082 488 m 358 480 q 212 505 294 480 q 174 407 187 456 l 176 407 q 369 434 254 407 l 391 434 q 437 388 437 420 l 437 374 q 415 198 416 253 q 496 233 496 227 q 480 355 480 296 l 480 363 q 505 507 480 433 q 358 480 428 480 z "},"d":{"ha":1542,"x_min":0,"x_max":1519,"o":"m 776 1519 q 844 1308 822 1405 q 1028 1470 968 1436 l 1028 1465 q 1001 1169 1028 1326 l 1004 1169 q 1188 1256 1068 1212 q 1308 1286 1293 1286 l 1308 1283 q 1202 1074 1253 1164 l 1261 1074 q 1430 1061 1329 1074 l 1430 1058 q 1221 879 1314 944 l 1221 876 q 1495 762 1314 865 q 1519 743 1519 747 q 1264 665 1301 665 q 1424 480 1380 549 l 1397 480 q 1183 496 1300 480 q 1278 260 1229 422 q 1289 212 1278 250 l 1286 212 q 1025 350 1152 270 q 1031 258 1031 315 q 1015 73 1031 172 q 863 247 923 163 l 860 247 q 784 0 860 210 l 781 0 q 654 285 677 168 q 477 65 572 167 l 477 62 l 472 62 q 453 274 453 181 l 453 309 l 456 315 l 453 315 q 239 206 347 252 l 239 209 q 339 486 274 368 l 336 486 q 52 453 165 453 q 217 648 87 520 q 231 662 220 648 q 0 735 98 697 q 103 798 6 745 q 244 854 153 825 q 76 987 136 936 q 30 1028 35 1028 l 30 1034 q 206 1053 137 1053 l 220 1053 q 231 1055 226 1053 q 241 1053 235 1053 l 266 1053 q 326 1050 285 1053 l 326 1053 q 206 1280 264 1149 l 212 1280 q 412 1218 328 1253 q 445 1202 412 1215 q 418 1459 426 1293 l 420 1459 q 648 1251 524 1396 l 651 1251 q 760 1497 663 1328 q 776 1519 773 1519 m 692 1183 q 724 1109 717 1136 q 749 1164 728 1109 q 800 1251 779 1219 q 765 1383 800 1259 q 708 1251 747 1366 l 692 1183 m 757 960 q 776 865 762 865 l 784 860 q 882 966 820 912 q 947 1185 918 1046 q 966 1345 966 1314 q 830 1188 854 1243 q 757 960 757 1071 m 483 1337 l 483 1335 q 532 1072 483 1274 q 613 898 572 952 q 659 852 648 857 q 694 884 694 869 q 700 947 700 939 q 483 1337 700 1151 m 963 1017 l 966 1017 q 1128 1066 1033 1050 q 1204 1199 1168 1131 l 1202 1199 q 982 1082 1069 1156 q 963 1017 974 1050 m 312 1191 q 407 1034 360 1095 q 494 1004 463 1018 l 494 1006 q 456 1131 477 1053 q 312 1191 344 1191 m 825 814 q 833 784 833 793 l 860 781 q 1253 977 1004 781 q 1299 1017 1299 1014 l 1280 1017 q 1251 1020 1261 1017 q 825 814 957 1020 m 160 996 q 336 868 256 910 q 496 789 437 806 q 570 795 529 795 q 624 789 605 795 l 627 803 q 537 909 563 857 q 410 974 519 935 q 233 998 317 998 q 160 996 183 996 m 1150 833 q 1063 784 1097 796 l 1063 781 q 1204 711 1105 772 q 1383 754 1228 711 l 1383 760 q 1150 833 1215 833 m 678 773 q 732 722 678 729 q 776 770 766 722 q 724 819 776 813 q 678 773 694 819 m 136 751 q 288 708 136 742 l 293 708 q 401 762 351 746 q 307 814 401 767 q 136 751 207 787 m 876 727 l 827 727 q 822 722 822 726 q 922 627 880 679 q 1147 559 991 591 q 1302 540 1244 545 q 1142 681 1206 647 q 974 746 1058 732 q 876 727 921 727 m 174 518 l 176 518 q 458 575 246 518 q 648 686 569 612 l 654 697 q 627 732 648 699 q 564 738 597 738 l 556 738 q 174 518 359 738 m 743 662 l 743 637 q 898 296 743 511 q 974 203 948 229 l 974 269 q 781 678 974 544 q 743 662 747 665 m 510 277 l 510 236 q 513 195 510 222 q 708 518 673 395 q 686 637 686 590 l 686 643 q 591 570 649 606 q 510 277 510 441 m 974 540 q 1015 426 997 492 q 1202 315 1128 351 q 1096 513 1129 505 q 974 543 1077 513 l 974 540 m 326 309 q 464 396 464 382 q 505 532 477 469 l 418 502 q 326 309 344 384 m 697 355 q 768 136 697 299 l 773 136 q 817 315 817 292 q 743 439 768 378 q 697 355 740 439 z "},"e":{"ha":1664,"x_min":0,"x_max":1541,"o":"m 781 1516 q 1036 1364 939 1516 q 1109 1373 1074 1373 q 1383 1177 1301 1373 q 1397 1085 1394 1131 q 1392 1009 1392 1041 q 1522 863 1482 962 q 1541 770 1541 815 l 1541 741 q 1419 518 1541 611 q 1386 499 1407 509 q 1397 431 1397 462 l 1397 399 q 1251 160 1397 256 q 1118 127 1181 127 l 1101 127 q 1023 138 1067 127 q 958 62 1023 123 q 776 0 875 0 q 529 144 624 0 q 453 133 486 133 l 434 133 q 195 271 288 133 q 157 404 157 341 l 157 437 q 165 494 157 469 q 30 621 82 529 q 0 741 0 686 l 0 770 q 152 1012 0 918 q 138 1101 138 1051 q 282 1348 138 1256 q 429 1386 349 1386 q 526 1370 472 1386 q 781 1516 616 1516 m 581 1345 q 768 1080 717 1245 l 770 1080 q 836 1210 790 1140 q 977 1343 922 1323 l 977 1345 q 776 1459 901 1459 q 581 1345 659 1459 m 195 1096 q 464 811 195 920 q 581 789 543 789 l 581 792 q 610 871 593 848 q 361 982 478 970 l 320 987 q 372 1039 320 991 q 543 985 461 1025 l 543 987 q 494 1164 496 1091 l 545 1213 l 548 1213 l 548 1204 q 654 920 548 1059 q 735 958 699 951 l 735 963 q 659 1177 735 1044 q 429 1329 561 1329 q 225 1210 300 1329 q 195 1096 195 1155 m 800 960 q 895 920 869 947 q 966 1025 915 920 q 1006 1180 1006 1119 l 1009 1180 q 1058 1131 1013 1180 q 1017 996 1055 1086 l 1020 996 q 1150 1036 1091 1025 q 1202 987 1158 1036 l 1202 985 l 1199 985 q 974 903 1114 985 q 941 871 944 881 q 974 781 958 850 q 987 779 983 781 q 1234 887 1109 794 q 1340 1088 1340 974 q 1242 1272 1340 1195 q 1112 1316 1180 1316 l 1107 1316 q 825 1061 932 1316 q 800 960 800 981 m 57 776 l 57 741 q 160 564 57 642 q 187 551 178 551 q 445 754 253 680 q 363 789 439 760 q 195 922 283 830 q 174 955 195 928 q 65 817 91 908 q 57 776 57 795 m 1364 952 q 1259 833 1356 915 q 1115 751 1194 783 q 1112 749 1112 751 q 1318 618 1188 733 l 1364 556 l 1367 556 q 1430 608 1397 570 q 1487 754 1487 681 q 1370 955 1487 873 q 1364 952 1364 955 m 637 773 l 637 757 q 732 632 637 680 q 768 627 757 627 l 779 627 q 911 732 871 627 q 914 762 914 751 l 914 768 q 814 898 914 858 q 784 903 803 903 l 768 903 q 643 806 686 903 q 637 773 637 787 m 212 420 q 347 209 212 288 q 431 190 401 190 l 450 190 q 730 450 623 190 q 749 524 741 485 q 738 572 746 572 q 662 605 699 580 q 559 399 589 526 q 548 320 551 359 q 496 372 545 320 q 543 526 497 414 l 540 526 q 388 477 433 477 l 342 526 q 575 616 456 538 q 616 651 616 646 q 583 727 591 688 l 581 727 q 358 648 477 720 q 228 496 241 562 q 212 420 217 482 m 936 651 q 1028 581 966 605 q 1215 526 1134 526 l 1215 524 q 1164 475 1172 475 q 1020 515 1131 475 q 1061 366 1061 415 l 1012 320 l 1009 320 l 1009 323 q 939 551 1009 422 q 887 602 928 572 q 811 572 834 572 q 806 524 811 554 q 917 285 835 381 q 1096 184 1003 184 l 1118 184 q 1324 326 1251 184 q 1343 412 1337 359 q 1066 705 1343 599 q 979 722 1007 722 q 960 694 960 722 q 936 651 947 668 m 776 410 q 583 165 702 235 q 776 57 659 57 q 971 163 899 57 q 779 410 850 229 l 776 410 z "},"f":{"ha":1623,"x_min":0,"x_max":1560,"o":"m 312 1522 q 532 1443 444 1488 q 784 1188 718 1343 l 827 1259 q 1001 1421 901 1363 q 1240 1516 1105 1481 q 1261 1519 1255 1519 l 1261 1516 q 1264 1459 1261 1507 q 1242 1237 1264 1362 l 1245 1237 q 1489 1267 1353 1267 l 1519 1267 q 1560 1264 1533 1267 l 1560 1261 q 1468 1012 1527 1121 q 1364 882 1427 946 q 1147 762 1232 772 l 1147 760 q 1354 648 1251 736 q 1476 491 1439 566 q 1554 288 1522 404 q 1560 255 1560 258 l 1457 255 q 1242 282 1369 255 l 1242 279 q 1264 62 1264 163 q 1261 0 1261 13 q 1047 73 1133 31 q 787 334 856 176 l 784 334 q 456 43 703 144 q 312 0 382 16 l 309 5 l 309 90 q 334 301 309 182 l 331 301 q 87 269 209 269 l 14 269 q 0 274 0 269 q 109 548 37 432 q 369 760 210 701 l 369 762 q 114 966 215 814 q 19 1169 62 1043 q 0 1251 0 1244 l 3 1251 q 60 1253 38 1253 q 334 1218 214 1253 l 334 1221 q 309 1435 309 1334 l 309 1508 l 312 1522 m 363 1449 q 499 987 363 1190 q 605 884 564 910 q 705 979 630 945 q 768 993 739 993 l 776 993 l 776 996 q 692 1237 776 1101 q 363 1449 594 1373 m 817 1101 q 836 985 830 1047 q 857 977 842 985 q 1044 1158 920 1076 q 1177 1218 1114 1195 q 1207 1446 1207 1339 l 1204 1446 q 941 1305 1069 1413 q 822 1126 850 1211 q 817 1101 817 1105 m 906 944 q 966 852 944 920 q 974 806 974 830 l 974 798 l 998 798 q 1432 1069 1281 798 q 1487 1210 1468 1143 l 1468 1210 q 1001 1055 1200 1210 q 906 944 915 971 m 73 1196 l 73 1194 q 315 849 153 943 q 480 792 427 792 q 488 789 480 789 q 583 795 552 795 l 583 825 q 488 909 515 882 q 453 955 484 918 q 366 1115 395 1034 q 334 1158 358 1158 q 79 1196 210 1196 l 73 1196 m 640 803 l 640 787 q 719 667 640 714 q 776 654 745 654 l 781 654 q 911 754 871 654 q 917 787 917 773 l 917 803 q 819 930 917 885 q 787 936 800 936 l 770 936 q 646 838 691 936 q 640 803 640 814 m 73 323 q 537 461 337 323 q 667 613 649 562 q 675 627 670 613 q 594 727 620 659 q 591 738 591 732 l 578 738 q 79 347 210 738 q 73 323 73 327 m 958 713 q 1218 374 1125 618 q 1245 342 1218 342 q 1487 309 1377 309 l 1487 312 q 1305 613 1420 522 q 968 724 1180 724 l 966 724 q 958 713 962 724 m 925 665 q 836 605 888 618 q 792 597 812 597 l 792 583 q 1207 73 792 201 l 1207 79 q 1061 548 1207 348 q 925 665 969 647 m 727 602 q 404 326 638 418 q 369 149 385 306 l 363 73 q 708 309 612 151 q 754 418 748 379 q 735 602 735 502 l 727 602 z "},"g":{"ha":1612,"x_min":0,"x_max":1571,"o":"m 787 1519 q 949 1278 927 1367 q 974 1196 958 1270 q 1313 1294 1121 1294 l 1329 1294 l 1343 1297 q 1272 1061 1339 1223 q 1204 947 1248 1011 q 1435 865 1320 937 q 1571 751 1497 827 q 1221 602 1430 642 q 1343 231 1343 455 l 1343 203 q 1128 266 1295 203 q 939 391 1050 296 q 871 141 935 294 q 784 0 821 41 q 640 190 683 102 q 594 347 594 292 l 591 347 q 442 258 527 297 q 233 195 363 222 l 228 195 l 228 201 q 350 594 228 448 l 350 597 q 49 711 212 610 q 0 746 3 737 q 252 914 155 888 q 366 939 331 939 l 366 941 q 228 1286 258 1097 l 233 1289 q 635 1158 483 1289 q 749 1468 647 1286 q 787 1519 783 1518 m 789 1424 q 686 1099 686 1232 q 779 882 749 1027 l 779 876 l 795 876 q 836 868 811 876 q 925 1120 925 1002 q 795 1424 925 1265 l 789 1424 m 979 1123 l 979 1099 q 895 854 979 986 q 1128 944 1038 944 q 1272 1237 1234 1072 q 1107 1202 1175 1226 q 979 1123 1036 1175 m 298 1229 q 445 936 345 1049 q 697 830 548 936 q 724 857 697 839 q 635 1074 698 999 q 513 1172 570 1145 q 298 1229 404 1222 m 901 787 l 901 760 q 1109 694 977 760 q 1166 654 1139 677 q 1435 732 1261 654 q 1478 757 1442 740 l 1478 762 q 1359 841 1377 837 q 1185 890 1265 890 l 1161 890 q 901 787 1041 890 m 95 751 q 350 654 186 686 l 401 646 q 654 749 536 741 q 675 751 656 751 l 675 770 q 458 879 584 853 q 399 884 410 882 q 95 754 254 884 l 95 751 m 732 762 q 787 708 743 708 l 789 708 q 844 762 844 720 l 844 765 q 795 819 831 819 l 784 819 q 732 773 750 819 l 732 762 m 884 705 q 868 684 884 703 q 933 496 933 566 q 971 442 933 474 q 1166 312 1055 359 q 1286 274 1234 287 q 1253 431 1272 375 q 1147 597 1225 515 l 1080 646 q 884 705 1008 687 m 288 266 q 586 418 466 313 q 597 483 591 420 q 697 694 610 568 l 697 697 q 461 618 595 697 q 347 486 375 549 q 288 266 288 366 m 743 659 q 646 393 646 530 q 779 92 646 245 q 882 415 882 273 l 882 445 q 819 654 882 543 l 792 651 l 787 651 q 743 659 764 651 z "},"h":{"ha":1689,"x_min":0,"x_max":1600,"o":"m 990 1576 q 1251 1424 1152 1576 q 1294 1267 1294 1346 q 1134 936 1294 1114 q 1175 939 1161 939 l 1180 939 q 1581 722 1493 939 q 1600 610 1600 667 l 1600 602 q 1449 342 1600 441 q 1305 301 1373 301 l 1275 301 q 963 458 1141 301 l 963 456 q 966 415 963 449 q 860 92 966 216 q 629 0 763 0 q 355 176 457 0 q 328 298 328 243 l 328 323 q 491 646 328 467 q 429 640 477 640 l 391 640 q 174 686 291 640 q 0 968 0 787 q 165 1242 0 1143 q 293 1275 236 1275 l 326 1275 q 616 1142 452 1275 q 659 1099 616 1139 l 656 1118 l 656 1185 q 751 1473 656 1354 q 990 1576 846 1576 m 711 1164 q 738 998 711 1095 q 814 1009 773 1009 q 987 906 920 1009 l 990 906 q 1180 1093 1083 943 q 1237 1264 1237 1199 q 1093 1495 1237 1409 q 982 1519 1036 1519 q 749 1362 834 1519 q 711 1164 711 1249 m 57 960 q 176 751 57 844 q 391 697 286 697 l 429 697 q 605 732 504 697 q 594 798 597 753 q 678 966 594 893 l 681 966 l 681 968 q 578 1096 650 1027 q 309 1221 427 1221 q 103 1109 190 1221 q 57 960 57 1042 m 651 792 q 730 662 651 720 q 808 640 778 640 q 941 722 886 640 q 963 798 963 764 q 865 941 963 887 q 808 952 832 952 l 806 952 q 654 827 698 952 q 651 792 654 826 m 1015 846 q 1020 798 1015 838 q 928 621 1020 695 q 996 510 936 574 q 1194 377 1093 415 q 1280 358 1240 358 l 1308 358 q 1478 442 1394 358 q 1544 605 1544 520 l 1544 616 q 1421 827 1544 739 q 1185 882 1318 882 q 1015 846 1078 882 m 385 320 l 385 301 q 510 92 385 176 q 637 57 570 57 q 863 198 776 57 q 909 415 909 307 q 863 591 909 537 q 822 586 837 586 l 792 586 q 635 673 704 586 l 635 675 q 510 578 610 675 q 385 320 385 428 z "},"i":{"ha":1612,"x_min":0,"x_max":1533,"o":"m 800 1519 l 911 1402 q 1036 1473 1022 1473 l 1036 1470 q 1096 1343 1063 1417 q 1397 1370 1208 1370 l 1397 1364 q 1362 1036 1397 1206 l 1364 1036 q 1468 990 1461 1000 q 1392 841 1421 892 q 1533 716 1443 806 q 1413 602 1499 678 q 1484 483 1438 570 l 1364 426 q 1402 73 1402 287 l 1400 73 q 1009 127 1203 73 l 1009 125 l 971 30 q 825 103 912 53 q 732 0 813 81 q 616 122 686 43 q 491 54 506 54 l 437 171 q 171 141 314 141 l 114 141 l 114 160 q 152 488 114 308 l 149 488 q 30 540 41 530 q 92 665 36 558 q 0 754 57 693 q 109 849 83 833 q 41 974 109 855 q 33 998 33 994 q 201 1069 113 1036 l 201 1072 q 176 1354 176 1190 l 176 1370 l 179 1370 q 426 1348 295 1370 q 483 1484 426 1352 q 675 1378 557 1449 q 800 1519 717 1437 m 572 1050 l 572 1023 q 524 974 572 989 l 515 974 q 472 979 476 979 l 467 979 q 84 754 340 979 l 84 751 q 377 551 275 572 q 434 537 395 543 q 464 540 452 540 l 475 540 q 521 496 505 540 q 518 429 521 473 q 656 163 526 326 q 732 81 730 81 q 944 401 923 306 q 963 486 954 421 q 1006 518 985 518 l 1023 518 q 1096 502 1079 502 q 1449 713 1222 502 l 1449 716 q 1196 901 1283 866 q 1063 944 1119 944 l 1044 944 q 996 1001 1007 944 l 1015 1080 q 827 1408 1015 1196 q 800 1435 802 1435 q 665 1267 715 1345 q 572 1050 572 1128 m 510 1402 l 483 1337 q 616 1297 514 1337 l 637 1329 q 510 1405 566 1380 l 510 1402 m 947 1356 q 979 1308 969 1327 l 1039 1329 q 1006 1394 1021 1375 q 947 1356 965 1372 m 233 1313 l 233 1310 q 290 979 233 1118 q 467 1036 395 1036 l 475 1036 q 515 1031 490 1036 l 515 1036 q 583 1245 515 1133 q 412 1294 583 1260 q 244 1310 302 1310 l 233 1313 m 1012 1259 q 1069 1088 1069 1161 l 1069 1074 q 1053 1001 1069 1033 l 1058 1001 q 1264 933 1141 1001 q 1332 1213 1311 1027 q 1340 1313 1337 1260 q 1012 1259 1162 1313 m 111 971 q 155 890 111 960 q 239 949 239 947 q 214 1012 218 1008 q 111 971 210 1012 m 1345 982 l 1313 898 q 1343 879 1318 898 l 1348 879 q 1389 966 1389 959 l 1345 982 m 743 922 l 749 922 q 917 808 862 922 q 930 738 930 778 q 800 562 930 612 q 746 553 781 553 q 572 675 625 553 q 562 738 562 701 q 689 914 562 862 q 743 922 713 922 m 618 738 l 618 735 q 708 616 618 654 q 746 610 728 610 q 868 703 831 610 q 873 738 873 715 q 760 865 873 837 l 741 865 q 621 765 656 865 q 618 738 618 751 m 136 627 l 106 567 q 171 545 157 545 q 187 589 187 584 q 136 627 184 589 m 1318 532 q 1343 480 1343 490 q 1402 510 1390 500 l 1370 567 l 1318 532 m 236 553 q 171 195 171 368 l 174 195 q 193 198 184 198 q 518 260 376 198 q 461 442 461 363 q 467 483 461 457 l 431 483 q 236 553 351 483 m 1093 445 q 1015 461 1064 445 q 925 236 1015 374 q 1055 174 948 208 q 1345 133 1224 133 l 1345 136 q 1280 483 1345 331 q 1267 499 1270 499 q 1093 445 1166 445 m 494 184 q 521 133 515 133 q 581 171 577 163 q 548 212 578 171 q 494 184 497 189 m 890 187 q 863 146 890 182 q 941 109 932 109 l 955 149 q 890 187 925 163 z "},"j":{"ha":1563,"x_min":0,"x_max":1519,"o":"m 757 1519 l 762 1519 q 871 1326 829 1519 l 882 1326 q 1034 1462 974 1462 l 1042 1462 q 1096 1392 1083 1462 l 1096 1337 q 1085 1242 1096 1301 q 1259 1313 1193 1313 q 1313 1253 1313 1313 q 1240 1082 1313 1192 q 1264 1050 1242 1082 q 1348 1055 1314 1055 l 1351 1055 q 1478 1012 1451 1055 l 1481 998 l 1481 987 q 1370 860 1481 940 q 1519 762 1519 822 l 1519 757 q 1335 648 1519 693 l 1332 635 q 1462 486 1462 543 l 1462 477 q 1392 423 1462 436 l 1337 423 q 1251 434 1289 423 l 1245 426 q 1313 260 1313 329 q 1253 206 1313 206 q 1096 271 1195 206 q 1050 244 1054 244 q 1055 171 1055 218 l 1055 168 q 993 38 1055 38 l 987 38 q 860 149 940 38 q 762 0 822 0 l 757 0 q 651 174 695 0 q 629 179 646 174 q 486 57 541 57 l 477 57 q 423 127 436 57 l 423 182 q 431 263 423 215 l 423 269 l 420 269 q 260 206 323 206 q 206 266 206 206 q 269 420 206 321 l 269 426 l 241 469 q 171 464 225 464 l 168 464 q 41 507 68 464 l 38 521 l 38 532 q 149 659 38 579 q 0 757 0 697 l 0 762 q 182 871 0 825 l 184 887 q 57 1034 57 976 l 57 1042 q 127 1096 57 1083 l 182 1096 q 274 1085 223 1096 l 274 1090 q 206 1259 206 1193 q 266 1313 206 1313 q 434 1242 323 1313 q 469 1261 465 1261 q 464 1348 464 1316 l 464 1351 q 526 1481 464 1481 l 532 1481 q 659 1370 579 1481 q 757 1519 697 1519 m 711 1337 l 803 1337 l 808 1335 l 808 1340 q 760 1457 788 1431 q 711 1337 720 1407 m 532 1421 q 521 1359 521 1394 l 521 1324 l 524 1291 q 618 1321 604 1321 l 618 1324 q 537 1419 597 1369 l 532 1421 m 939 1310 q 1031 1272 983 1294 q 1042 1356 1042 1321 q 1031 1402 1038 1402 q 939 1310 1012 1402 m 228 770 l 228 732 q 404 355 228 531 q 757 220 571 220 q 1128 374 960 220 q 1261 586 1224 475 q 1289 749 1289 691 q 1107 1150 1289 973 q 1025 1207 1030 1207 q 776 1280 897 1280 l 738 1280 q 380 1123 549 1280 q 228 770 228 956 m 263 1256 q 312 1137 263 1223 l 382 1204 l 382 1207 q 263 1256 296 1256 m 1131 1204 l 1204 1134 q 1256 1256 1251 1209 q 1131 1204 1223 1256 m 117 1031 q 203 944 140 987 q 241 1034 214 981 q 163 1042 183 1042 q 117 1031 117 1038 m 1291 993 q 1324 901 1324 920 q 1419 982 1369 922 l 1421 987 q 1359 998 1394 998 l 1324 998 q 1291 993 1291 998 m 62 760 q 171 713 92 730 l 171 792 l 174 806 q 171 808 171 806 q 62 760 77 781 m 1340 808 l 1340 806 l 1343 789 l 1343 711 q 1457 760 1437 734 q 1340 808 1428 789 m 98 532 q 163 521 130 521 l 209 521 q 214 529 214 521 q 187 613 187 595 q 100 537 151 597 l 98 532 m 1316 575 q 1280 486 1316 561 q 1356 477 1334 477 q 1402 488 1402 481 q 1316 575 1379 532 m 1207 377 q 1145 309 1207 373 l 1145 307 q 1253 263 1229 263 q 1256 266 1253 266 q 1207 377 1249 315 m 307 372 q 263 263 269 307 q 372 309 326 275 l 307 372 m 483 231 l 483 228 q 477 163 477 174 q 488 117 481 117 q 570 195 524 135 q 483 231 563 195 m 909 184 l 909 182 q 987 98 951 118 q 998 163 998 130 l 998 209 q 993 214 998 214 q 909 184 960 198 m 713 165 q 760 62 735 83 q 806 165 784 83 l 713 165 z "},"k":{"ha":1521,"x_min":0,"x_max":1443,"o":"m 705 1519 l 730 1519 q 1006 1430 864 1519 q 1074 1272 1074 1368 l 1074 1270 l 1072 1242 l 1074 1242 q 1443 1337 1276 1337 q 1381 1082 1443 1255 q 1256 906 1336 987 q 1210 868 1211 872 q 1370 817 1318 853 q 1443 643 1443 767 q 1199 288 1443 448 q 1107 266 1144 266 q 977 315 1048 266 q 974 312 974 315 q 890 46 951 156 q 868 0 890 42 l 865 0 q 600 350 666 143 q 597 358 597 355 q 410 236 500 236 q 203 350 313 236 q 106 659 106 491 q 247 846 106 785 l 296 860 l 296 863 q 111 1020 250 879 l 30 1131 q 0 1188 0 1179 q 279 1242 165 1242 q 461 1210 370 1242 q 442 1305 442 1261 l 442 1321 q 627 1508 442 1444 q 705 1519 668 1519 m 499 1318 l 499 1310 q 694 941 499 1177 l 711 930 l 713 930 l 751 1058 l 757 1058 l 795 930 l 798 930 q 892 1004 889 984 q 1017 1278 1017 1168 q 846 1440 1017 1396 q 738 1462 789 1462 l 705 1462 q 513 1367 592 1462 q 499 1318 499 1343 m 868 873 q 968 860 887 873 q 1107 876 1093 871 q 1343 1142 1267 952 q 1378 1275 1362 1204 l 1375 1275 q 1115 1199 1278 1267 q 1047 1147 1047 1168 q 892 909 1017 1067 q 865 873 865 882 l 868 873 m 87 1153 q 184 1028 110 1111 q 382 879 304 910 q 407 871 400 871 l 431 871 q 553 863 482 871 q 646 879 646 873 q 572 1001 635 926 q 494 1131 530 1065 q 277 1185 396 1185 q 87 1153 190 1185 m 708 873 q 705 876 708 876 q 678 830 693 830 l 689 792 l 689 773 q 730 741 707 773 q 746 746 739 746 l 762 746 l 781 741 q 822 776 787 762 l 822 803 l 830 830 q 806 868 816 830 l 806 876 q 798 873 803 876 q 754 890 778 873 q 708 873 732 873 m 163 656 q 260 374 163 497 q 374 301 330 309 q 410 293 403 293 q 659 591 523 293 q 673 635 673 623 l 673 665 q 675 719 673 682 l 543 692 l 629 789 l 629 792 q 418 817 487 817 q 165 684 201 817 q 163 656 163 660 m 879 789 l 966 692 l 963 692 l 833 719 q 865 583 833 637 q 1109 323 979 323 q 1329 480 1195 323 q 1386 651 1386 569 q 1302 787 1386 758 q 1150 814 1234 814 l 1115 814 q 879 789 1017 814 m 757 686 q 640 426 700 524 q 746 193 650 326 q 846 90 802 128 l 849 90 q 922 372 922 264 q 817 548 854 456 q 760 686 773 660 l 757 686 z "},"l":{"ha":1689,"x_min":0,"x_max":1587,"o":"m 1213 1576 q 1533 1370 1428 1576 q 1560 1245 1560 1301 l 1560 1210 q 1457 971 1560 1081 q 1210 806 1322 844 q 1202 800 1202 806 q 1435 684 1274 791 q 1565 510 1536 599 q 1587 385 1587 450 q 1443 98 1587 212 q 1229 27 1344 27 q 968 141 1077 27 q 825 361 847 279 q 817 380 821 361 l 814 380 q 581 52 736 153 q 391 0 492 0 q 76 201 186 0 q 46 342 46 273 l 46 358 q 369 760 46 601 q 415 776 408 776 l 415 779 q 73 979 201 833 q 0 1204 0 1080 q 182 1514 0 1396 q 355 1557 269 1557 l 361 1557 q 768 1218 618 1557 q 787 1175 783 1175 q 939 1454 811 1297 q 1213 1576 1055 1576 m 817 998 l 941 1139 l 944 1139 q 922 925 941 1132 q 1137 960 949 928 l 1006 827 l 1053 827 l 1069 825 q 1416 1017 1299 880 q 1492 1139 1471 1072 q 1506 1226 1503 1183 q 1356 1481 1506 1384 q 1215 1519 1286 1519 l 1210 1519 q 930 1345 1046 1519 q 817 998 817 1177 m 57 1199 q 369 852 57 977 q 562 817 474 817 l 578 817 l 597 822 l 464 990 l 467 990 q 670 936 484 987 q 675 1153 673 978 q 751 1044 678 1153 l 754 1044 q 678 1272 733 1175 q 363 1500 541 1500 l 353 1500 q 98 1348 197 1500 q 57 1199 57 1276 m 727 977 l 727 930 q 681 882 713 882 l 665 882 q 618 890 654 882 q 654 825 652 850 q 594 760 654 781 q 586 757 589 757 l 586 754 q 667 700 667 742 l 667 684 q 648 632 667 668 q 711 656 687 654 q 773 578 764 656 q 800 632 777 581 q 836 648 825 648 l 854 648 q 909 618 868 648 l 909 621 q 895 675 895 654 l 895 681 q 944 730 907 730 l 985 735 l 985 738 q 928 787 943 755 l 928 817 q 968 873 928 835 l 966 873 q 917 868 933 868 q 865 922 877 868 l 868 966 q 800 920 830 920 q 727 977 762 920 m 1053 765 l 1053 762 l 1166 697 l 1166 694 q 952 675 977 675 l 952 673 q 1020 469 1001 532 l 846 591 l 846 572 q 844 513 846 553 l 841 513 l 841 518 l 838 518 q 974 222 876 336 q 1232 84 1086 84 q 1487 231 1381 84 q 1530 385 1530 310 l 1530 388 q 1375 651 1530 545 q 1099 765 1276 732 q 1069 768 1084 768 q 1053 765 1067 768 m 103 363 l 103 336 q 222 114 103 212 q 399 57 301 57 q 746 361 611 57 q 760 404 760 397 l 711 600 l 521 494 l 521 496 q 610 692 600 661 q 434 722 448 722 q 138 494 229 639 q 103 363 103 420 z "},"m":{"ha":1635,"x_min":0,"x_max":1546,"o":"m 784 1573 l 814 1573 q 930 1492 888 1573 l 933 1481 q 1082 1554 1003 1554 q 1251 1457 1169 1554 q 1272 1370 1272 1413 q 1183 1147 1272 1279 q 1264 1158 1220 1158 q 1506 944 1422 1158 q 1546 789 1543 861 q 1451 651 1546 686 q 1525 510 1525 580 l 1525 502 q 1427 334 1525 415 q 1340 312 1381 312 q 1093 420 1242 312 l 1093 418 q 1123 288 1123 350 l 1123 279 q 865 22 1123 108 q 770 0 808 0 l 743 0 q 616 92 653 0 l 613 92 q 469 19 549 19 q 312 100 394 19 q 277 203 277 153 q 366 423 277 291 q 290 412 328 412 l 271 412 q 19 678 109 412 q 0 773 0 730 l 0 784 q 92 920 0 884 l 92 922 q 19 1066 19 987 q 95 1218 19 1139 q 201 1259 146 1259 q 461 1142 306 1259 l 461 1145 q 426 1289 426 1229 q 751 1571 426 1489 q 784 1573 766 1573 m 483 1289 q 618 998 483 1175 l 618 990 q 591 963 615 963 l 589 963 q 505 1034 570 963 q 415 1107 492 1041 q 203 1202 281 1202 q 76 1074 114 1202 l 76 1061 q 195 920 76 989 l 201 901 q 130 871 201 871 q 57 798 57 852 l 57 776 q 155 532 57 680 q 274 469 208 469 l 298 469 q 448 515 347 469 l 453 515 q 480 488 480 512 q 420 401 480 475 q 334 201 334 280 q 448 79 334 122 q 477 76 463 76 q 597 165 537 76 q 635 201 614 201 q 665 130 665 201 q 738 57 684 57 l 760 57 q 955 122 831 57 q 1066 277 1066 184 l 1066 290 q 960 540 1066 385 q 958 551 958 545 q 987 578 958 572 q 1063 518 1002 578 q 1345 369 1236 369 q 1468 491 1428 369 l 1468 510 q 1351 648 1468 583 l 1345 667 l 1345 670 q 1373 697 1349 697 l 1392 697 q 1481 746 1456 697 q 1489 789 1489 774 q 1397 1031 1489 876 q 1267 1101 1338 1101 l 1256 1101 q 1099 1055 1197 1101 l 1096 1055 q 1069 1082 1069 1059 l 1069 1085 q 1139 1183 1069 1099 q 1215 1373 1215 1299 l 1215 1375 q 1109 1492 1215 1451 q 1080 1497 1099 1497 l 1077 1497 q 936 1381 1002 1497 l 917 1375 l 914 1375 q 887 1411 887 1375 q 890 1413 887 1413 q 838 1511 890 1484 q 795 1519 808 1519 q 559 1430 712 1519 q 483 1289 483 1370 m 768 987 l 800 987 q 977 876 899 987 q 1001 779 1001 822 l 1001 757 q 901 586 1001 659 q 798 553 844 553 l 776 553 q 578 694 646 553 q 567 754 567 736 l 567 787 q 637 933 567 861 q 768 987 706 987 m 621 770 q 730 618 621 669 q 784 608 753 610 q 928 697 873 608 q 947 770 947 738 q 857 914 947 859 q 784 933 817 933 q 640 844 694 933 q 621 770 627 823 z "},"n":{"ha":1624,"x_min":0,"x_max":1568,"o":"m 743 1519 q 911 1313 862 1396 q 1090 1394 994 1358 q 1150 1213 1131 1291 q 1261 1218 1192 1218 l 1280 1218 l 1297 1221 q 1310 1218 1301 1218 l 1321 1218 q 1310 1053 1318 1115 q 1527 977 1439 1017 l 1527 971 q 1435 795 1476 861 q 1568 670 1524 718 q 1416 537 1501 605 q 1468 420 1449 473 q 1294 363 1375 385 q 1302 201 1302 281 l 1302 179 l 1289 182 l 1283 182 q 1082 198 1174 182 q 1028 49 1082 186 q 868 125 988 60 q 751 0 809 54 q 643 117 702 46 l 640 117 q 453 38 538 65 l 453 41 q 401 203 423 119 q 328 201 351 201 l 217 201 l 217 203 q 233 393 217 286 q 46 467 127 429 l 46 469 q 127 627 73 526 l 127 629 q 0 749 116 629 q 136 865 41 791 q 54 1050 54 1032 q 231 1104 101 1069 q 228 1204 228 1173 l 228 1283 l 231 1283 q 369 1275 277 1283 q 442 1459 393 1352 l 445 1459 q 605 1375 532 1420 q 743 1519 648 1428 m 741 1454 q 524 1126 524 1230 q 746 1188 636 1188 l 770 1188 q 947 1150 852 1188 l 947 1153 q 743 1454 905 1265 l 741 1454 m 464 1394 q 418 1267 418 1284 q 518 1251 425 1267 q 575 1337 530 1274 l 575 1340 q 464 1397 529 1367 l 464 1394 m 939 1272 q 982 1188 960 1237 l 985 1188 q 1104 1207 1073 1207 q 1061 1332 1071 1324 q 939 1272 990 1304 m 271 1237 q 298 968 271 1101 q 391 1006 387 1002 q 472 1088 458 1088 l 472 1096 q 496 1207 472 1149 l 494 1207 q 271 1237 334 1237 m 998 1145 q 1053 1085 998 1118 q 1166 947 1142 1001 q 1240 922 1179 947 q 1272 1164 1272 1045 l 1275 1175 q 998 1145 1160 1175 m 336 754 l 336 741 q 334 738 336 738 l 336 732 l 336 716 q 480 420 336 559 q 746 315 611 315 l 773 315 q 1096 475 957 315 q 1185 727 1185 595 l 1185 735 q 987 1088 1185 947 q 776 1153 873 1153 l 746 1153 q 423 990 562 1153 q 336 754 336 869 m 114 1023 q 176 892 151 932 l 258 947 q 236 1055 250 976 l 233 1055 q 114 1023 225 1055 m 1305 1006 q 1283 898 1299 969 q 1394 825 1329 873 l 1397 825 q 1465 952 1429 871 l 1462 952 q 1305 1006 1384 985 m 68 751 l 68 746 q 342 545 252 568 l 342 548 q 301 724 301 637 l 301 749 q 347 939 301 840 q 73 754 233 888 q 68 751 73 751 m 1194 887 q 1221 727 1221 807 q 1134 467 1221 591 l 1134 464 l 1137 464 q 1421 602 1244 464 q 1500 667 1482 654 l 1500 673 q 1234 873 1339 822 l 1194 890 l 1194 887 m 163 594 q 109 488 109 494 l 111 488 q 241 439 178 461 q 260 532 241 447 q 168 594 200 568 l 163 594 m 1280 456 q 1289 412 1283 448 q 1405 448 1340 423 l 1405 450 q 1375 510 1385 498 q 1280 456 1335 483 m 304 507 q 263 244 263 336 l 266 244 q 537 271 423 244 l 537 274 q 502 361 515 317 q 374 486 465 373 q 304 507 345 491 m 1150 420 l 1115 420 l 1096 423 q 1015 353 1062 385 q 974 271 1015 342 l 974 269 q 1213 231 1114 231 l 1256 231 q 1237 437 1256 328 q 1150 420 1185 420 m 567 323 l 567 320 q 751 65 592 241 q 947 317 906 231 q 765 279 861 279 l 760 279 q 567 323 658 279 m 448 209 q 483 98 464 151 q 613 155 561 130 q 562 231 589 187 q 448 209 476 209 m 947 228 q 901 160 901 165 q 1001 111 997 111 q 1034 206 1034 187 q 947 228 1028 206 z "},"o":{"ha":1631,"x_min":0,"x_max":1527,"o":"m 684 1522 q 996 1424 837 1522 q 998 1421 996 1421 q 1128 1481 1066 1481 l 1134 1481 q 1451 1275 1321 1481 q 1527 1042 1527 1124 l 1527 1017 q 1354 808 1527 887 q 1286 787 1312 791 l 1286 784 q 1432 716 1352 779 q 1487 551 1487 650 q 1232 160 1487 334 q 901 0 1122 0 q 673 43 798 0 q 589 111 629 64 q 545 228 545 177 q 334 92 439 92 q 130 193 247 92 l 90 247 q 0 567 0 386 q 52 703 0 637 q 5 879 5 782 q 182 1232 5 1056 q 339 1305 252 1305 l 374 1305 l 374 1308 q 559 1503 374 1427 q 684 1522 618 1522 m 429 1289 q 589 1175 486 1276 q 722 996 676 1075 q 779 1006 753 1006 l 825 1006 q 898 1259 825 1054 q 960 1373 936 1339 l 960 1375 q 849 1432 948 1394 q 684 1465 759 1465 l 675 1465 q 448 1356 537 1465 q 429 1289 429 1327 m 830 949 l 819 949 q 792 952 806 949 q 724 939 769 949 q 640 1017 678 939 q 399 1240 509 1204 l 347 1251 q 176 1142 267 1251 q 62 882 62 1002 l 62 873 q 122 711 62 772 q 271 670 175 670 q 600 732 378 670 q 670 678 640 732 q 713 613 713 644 q 656 488 713 595 q 600 260 600 350 q 806 68 600 94 q 906 57 850 57 q 1202 222 1110 57 l 1204 250 l 1204 260 q 936 646 1204 393 q 930 670 930 663 l 930 681 q 952 743 930 688 q 990 806 965 806 q 1001 811 990 811 q 1457 968 1377 811 q 1473 1031 1468 988 q 1359 1308 1462 1160 q 1134 1424 1253 1424 l 1131 1424 q 884 1020 985 1424 q 844 955 872 955 q 830 949 844 949 m 792 879 q 887 803 857 879 q 892 768 892 791 l 892 765 q 806 659 892 686 l 789 659 q 692 741 719 659 q 689 768 689 755 q 768 876 689 846 l 792 879 m 746 770 l 746 768 q 789 716 746 728 l 792 716 q 836 768 825 716 l 836 770 q 792 822 836 807 q 746 770 755 822 m 987 673 q 1185 456 1149 522 q 1261 269 1261 342 l 1261 255 q 1430 551 1430 395 q 1321 716 1430 680 q 1134 743 1238 743 q 1009 730 1009 743 l 987 673 m 271 613 q 90 659 168 613 l 90 656 q 57 562 57 613 q 198 209 57 346 q 339 149 288 149 q 553 353 437 149 q 656 613 566 446 q 600 675 635 627 q 271 613 401 613 z "},"p":{"ha":1552,"x_min":0,"x_max":1470,"o":"m 694 1522 q 993 1430 839 1522 q 1335 1158 1204 1430 q 1367 1066 1356 1101 q 1470 817 1470 970 q 1392 543 1470 684 l 1394 529 l 1394 496 q 1161 171 1394 300 q 1025 119 1109 144 q 765 0 926 0 q 469 92 620 0 q 396 130 437 130 q 176 309 260 176 q 100 491 100 451 q 0 741 0 590 q 57 971 0 848 q 46 1025 46 1002 l 46 1044 q 193 1316 46 1198 q 423 1421 309 1402 q 472 1449 456 1421 q 694 1522 569 1522 m 521 1411 q 673 1234 619 1370 q 722 1028 722 1094 l 727 1028 l 727 1031 q 789 1270 727 1090 q 879 1397 819 1339 q 903 1413 886 1397 q 700 1465 795 1465 l 681 1465 q 521 1411 591 1465 m 770 930 q 830 901 800 922 q 1251 1112 1097 1112 q 1291 1107 1289 1109 l 1291 1112 q 979 1375 1178 1375 q 792 1077 859 1375 q 770 930 779 1006 m 103 1044 l 103 1031 q 534 825 103 883 q 589 819 539 825 q 646 906 589 854 q 675 928 675 922 q 613 1232 675 1053 q 448 1367 547 1367 q 244 1283 368 1361 q 103 1044 103 1175 m 868 854 q 882 798 882 818 l 882 776 q 1191 716 981 776 q 1359 608 1335 656 l 1362 608 q 1413 822 1413 724 q 1318 1034 1413 947 q 1251 1055 1286 1055 q 868 854 1116 1055 m 95 917 q 57 735 57 817 q 163 515 57 598 q 217 502 186 502 l 228 502 q 586 686 346 502 q 608 708 608 702 q 586 762 591 737 q 190 852 292 794 q 95 917 146 870 m 643 795 l 643 779 q 716 697 643 724 q 732 694 732 697 q 825 768 795 694 l 825 795 q 751 876 825 849 l 732 879 q 654 830 688 879 q 643 795 643 809 m 865 722 q 825 670 865 705 q 1058 214 1058 385 l 1055 190 q 1199 260 1080 190 q 1337 496 1337 369 l 1337 518 q 1177 659 1337 595 q 879 719 980 719 q 865 722 879 722 m 648 665 q 228 445 382 445 l 217 445 q 174 450 185 445 l 174 448 q 488 176 282 176 q 697 613 640 176 q 700 643 697 619 q 648 665 680 647 m 526 125 l 526 122 q 765 57 665 57 q 985 160 898 57 q 1001 225 1001 189 q 806 600 1001 350 q 765 643 773 643 q 751 581 751 643 q 697 328 727 420 q 605 168 669 245 q 526 125 555 127 z "},"q":{"ha":1522,"x_min":0,"x_max":1432,"o":"m 515 1440 l 553 1440 q 806 1305 744 1440 q 833 1164 833 1249 q 811 990 833 1088 l 811 987 l 814 987 q 920 1150 831 1039 q 1096 1248 1015 1248 l 1118 1248 q 1381 1082 1242 1248 q 1432 914 1432 996 l 1432 895 q 1381 703 1432 796 q 1115 610 1258 610 l 1077 610 q 993 618 1034 610 l 990 618 l 990 616 q 1245 326 1245 484 l 1245 320 q 1118 84 1245 210 q 909 0 1021 0 l 892 0 q 700 52 791 0 q 605 339 605 169 q 610 420 605 356 q 342 203 513 266 l 301 195 q 127 274 238 202 q 0 548 0 379 q 282 836 0 836 q 431 819 336 836 q 304 917 366 859 q 184 1142 193 1045 q 312 1364 224 1295 q 515 1440 406 1440 m 244 1139 q 350 952 248 1071 q 483 857 423 890 q 502 811 502 834 q 453 760 486 760 l 445 760 q 274 779 334 779 q 84 686 133 779 q 57 540 57 624 q 255 269 57 356 q 304 255 292 255 q 491 366 424 286 q 570 467 537 411 q 602 483 590 483 l 624 483 q 670 429 659 483 q 662 339 662 379 l 662 336 q 741 95 662 193 q 890 57 819 57 l 914 57 q 1161 231 1051 57 q 1188 320 1188 279 l 1188 328 q 947 575 1188 448 q 925 613 925 598 l 925 629 q 971 675 939 675 l 979 675 l 1096 665 q 1337 743 1228 665 q 1378 901 1366 791 q 1215 1156 1378 1053 q 1109 1194 1154 1194 q 863 960 988 1194 q 806 920 842 920 q 751 968 751 934 l 751 977 q 776 1164 776 1101 q 627 1375 776 1345 q 532 1386 584 1383 q 247 1161 332 1386 q 244 1139 244 1146 m 711 852 q 846 768 798 852 q 863 697 863 739 q 743 553 863 593 q 713 551 725 551 q 564 670 601 551 q 562 694 562 680 l 562 708 q 673 846 562 805 q 711 852 707 852 m 618 703 l 618 700 q 692 610 618 636 q 716 608 707 608 q 803 681 777 608 q 806 703 806 692 q 730 792 806 765 q 708 795 715 795 q 624 735 659 795 q 618 703 618 716 z "},"r":{"ha":1519,"x_min":0,"x_max":1435,"o":"m 784 1446 q 1096 1248 967 1446 q 1099 1218 1099 1230 l 1099 1183 q 1096 1128 1099 1165 q 1147 1134 1128 1134 l 1150 1134 q 1413 917 1301 1134 q 1435 825 1435 858 l 1435 762 q 1386 610 1435 705 q 1394 529 1394 562 q 1142 165 1394 250 l 1050 146 q 784 0 918 0 l 743 0 q 553 65 665 0 q 193 296 283 65 q 168 372 176 372 q 0 662 0 507 l 0 686 q 71 887 0 784 q 68 928 68 914 l 68 974 q 260 1289 68 1189 q 423 1329 349 1329 q 486 1302 433 1329 q 692 1432 532 1385 q 784 1446 709 1440 m 513 1191 q 659 854 513 1066 q 741 876 695 876 q 844 836 792 876 l 849 836 q 1044 1199 1044 1010 q 920 1348 1044 1261 q 781 1389 852 1389 q 570 1313 684 1389 q 513 1191 513 1259 m 122 949 q 412 749 122 749 q 594 770 584 755 q 616 814 594 782 l 616 817 q 458 1175 458 1041 l 458 1202 q 464 1248 458 1226 q 412 1272 422 1272 q 239 1210 340 1272 q 122 949 122 1122 m 876 787 q 882 773 882 778 q 1053 787 977 787 q 1354 678 1265 787 l 1356 678 q 1381 795 1381 745 q 1234 1050 1381 930 q 1156 1077 1190 1077 l 1142 1077 q 1074 1050 1074 1070 q 939 838 1047 960 q 876 787 880 787 m 95 819 q 54 670 54 737 q 195 423 54 545 q 282 391 241 391 q 581 597 414 391 q 613 646 613 633 q 589 705 600 654 q 410 692 472 692 q 95 819 178 692 m 643 727 q 678 656 643 692 q 741 632 711 632 q 833 724 833 650 q 765 814 833 786 q 735 819 754 819 q 656 770 689 819 q 643 727 648 758 m 863 637 q 1104 293 1104 446 l 1104 274 q 1093 214 1104 254 l 1096 214 q 1275 320 1217 244 q 1337 521 1337 404 l 1337 537 q 1044 730 1337 730 q 890 713 890 724 q 863 637 890 684 m 656 600 q 285 334 456 334 q 241 339 253 334 l 241 336 q 339 184 268 244 q 548 122 424 122 q 749 401 749 122 l 749 423 q 735 575 749 496 q 656 600 703 575 m 792 586 q 806 410 806 492 q 651 84 806 144 l 651 79 q 768 54 720 54 q 1028 212 903 54 q 1047 282 1047 251 l 1047 296 q 895 534 1047 391 q 817 597 826 597 q 792 586 797 586 z "},"s":{"ha":1542,"x_min":0,"x_max":1506,"o":"m 749 1519 l 754 1519 q 882 1226 842 1519 q 884 1134 884 1170 l 884 1082 q 1240 1313 1117 1313 l 1253 1313 q 1305 1256 1299 1313 l 1305 1253 q 1085 903 1305 1131 q 1063 884 1063 888 l 1109 884 q 1497 779 1415 880 q 1506 746 1506 764 q 1345 643 1506 690 q 1137 618 1236 618 l 1072 618 q 1294 269 1294 389 l 1294 258 q 1242 206 1286 206 l 1229 206 q 884 426 1111 206 l 884 385 q 798 22 884 139 q 754 0 774 0 l 749 0 q 627 255 667 0 q 618 388 618 316 l 618 437 q 320 220 422 246 q 260 206 304 212 q 198 269 198 206 q 393 591 198 379 q 420 618 397 591 l 369 618 q 16 711 135 618 q 0 751 0 736 q 271 879 0 838 q 396 884 345 884 l 426 884 q 198 1242 198 1118 q 247 1299 205 1299 q 260 1302 247 1302 q 618 1072 385 1302 l 618 1131 q 713 1506 618 1393 q 749 1519 734 1519 m 675 1145 l 675 1104 q 697 974 675 986 q 735 925 730 925 q 765 922 750 925 q 822 1009 786 960 q 827 1101 827 1048 l 827 1147 q 757 1457 827 1341 l 751 1459 q 697 1329 711 1413 q 675 1145 675 1246 m 822 906 q 895 830 879 869 q 1074 977 947 853 q 1248 1256 1248 1166 l 1242 1256 q 1053 1158 1173 1251 q 854 955 905 1032 q 822 906 845 943 m 258 1245 l 255 1240 q 382 1015 268 1153 q 572 841 513 875 l 578 838 q 640 901 578 854 q 667 911 659 911 l 667 917 q 494 1109 622 993 q 258 1245 333 1245 m 613 760 q 684 665 613 701 q 730 654 706 654 l 738 654 q 852 738 819 654 q 854 760 854 749 l 854 762 q 760 865 854 837 q 738 868 749 868 l 735 868 q 616 781 648 868 q 613 760 613 766 m 62 751 q 171 700 79 726 q 393 673 290 673 q 505 692 505 673 q 559 727 556 727 q 556 773 556 759 q 559 781 559 779 q 486 825 499 825 q 410 827 450 827 l 377 827 q 76 765 197 827 q 62 751 62 754 m 911 773 l 911 743 q 1006 678 1002 678 l 1112 673 q 1435 741 1311 673 l 1443 751 q 1318 806 1419 782 q 1128 827 1223 827 l 1096 827 q 968 808 979 827 q 911 773 919 773 m 890 684 q 811 613 867 637 q 977 418 847 546 q 1234 263 1152 263 l 1237 263 q 1028 581 1237 365 q 955 643 1024 581 l 895 684 l 890 684 m 581 675 q 385 499 509 627 l 328 423 q 255 266 255 315 l 260 263 q 507 410 339 267 q 675 605 640 541 q 581 675 632 615 m 675 415 l 675 374 q 743 68 675 182 l 751 60 q 798 155 779 86 q 827 372 827 256 l 827 423 q 825 496 827 446 q 751 597 789 539 l 741 597 l 681 510 q 675 415 675 464 z "},"t":{"ha":1609,"x_min":0,"x_max":1546,"o":"m 784 1573 l 808 1573 q 933 1484 897 1573 l 933 1481 q 1080 1554 1004 1554 q 1251 1457 1171 1554 q 1272 1370 1272 1413 q 1183 1147 1272 1279 q 1264 1158 1221 1158 q 1476 1006 1400 1158 q 1546 789 1546 873 q 1451 651 1546 686 q 1525 510 1525 580 q 1432 339 1525 413 q 1343 312 1391 312 q 1093 420 1241 312 l 1093 418 q 1123 288 1123 348 l 1123 285 q 887 30 1123 113 q 765 0 817 0 l 743 0 q 616 92 654 0 l 613 92 q 472 19 548 19 q 304 111 385 19 q 277 203 277 160 q 366 423 277 291 q 290 412 328 412 l 279 412 q 35 635 118 412 q 0 773 0 715 l 0 784 q 92 920 0 884 l 92 922 q 19 1066 19 987 q 111 1232 19 1149 q 203 1259 159 1259 q 461 1142 304 1259 l 461 1145 q 426 1291 426 1228 q 751 1571 426 1488 q 784 1573 766 1573 m 483 1289 q 613 1006 483 1176 q 643 977 616 1006 q 743 1001 692 1001 l 770 1001 q 890 971 817 1001 q 1036 1082 949 1028 q 1128 1172 1084 1101 q 1215 1373 1215 1288 l 1215 1375 q 1093 1497 1215 1457 l 1077 1497 q 955 1411 1012 1497 q 917 1375 938 1375 l 914 1375 q 887 1411 887 1375 q 890 1413 887 1413 q 838 1511 890 1484 q 795 1519 808 1519 q 545 1419 702 1519 q 483 1289 483 1362 m 76 1061 q 165 939 76 998 q 201 901 201 922 q 130 871 201 871 q 57 798 57 852 l 57 776 q 155 532 57 680 q 274 469 209 469 l 293 469 q 534 575 393 469 q 486 716 486 641 l 486 743 q 591 949 486 854 q 203 1202 336 1202 q 79 1085 119 1202 q 76 1061 76 1070 m 936 936 q 1028 738 1028 848 l 1028 722 q 990 589 1028 655 q 1345 369 1209 369 q 1468 488 1426 369 l 1468 510 q 1351 648 1468 583 l 1345 667 l 1345 670 q 1373 697 1349 697 l 1392 697 q 1481 746 1456 697 q 1489 789 1489 774 q 1394 1034 1489 880 q 1259 1101 1340 1101 q 936 936 1126 1101 m 540 730 q 670 532 540 602 q 757 513 722 513 q 955 643 884 513 q 974 730 974 695 q 844 928 974 857 q 757 947 815 941 q 559 817 629 947 q 540 730 545 788 m 768 458 l 743 458 q 570 529 659 458 l 567 529 q 469 464 566 523 q 334 203 334 300 q 439 81 334 124 q 472 76 458 76 q 597 165 538 76 q 635 201 614 201 q 665 130 665 201 q 738 57 683 57 l 768 57 q 998 149 846 57 q 1066 277 1066 208 l 1066 285 q 958 543 1066 389 q 768 458 866 458 z "},"u":{"ha":1564,"x_min":0,"x_max":1519,"o":"m 659 1535 q 914 1443 797 1535 q 977 1297 977 1381 l 977 1289 q 1204 1470 1131 1428 l 1204 1465 q 1166 1204 1204 1338 q 1232 1215 1194 1215 l 1234 1215 q 1497 998 1385 1215 q 1519 906 1519 939 l 1519 844 q 1419 621 1519 747 q 1291 581 1383 595 l 1272 581 l 1272 578 q 1413 336 1373 443 l 1411 336 q 1145 418 1255 372 q 1185 285 1185 344 q 993 35 1185 146 q 865 0 925 0 l 819 0 q 583 106 707 0 q 545 266 545 180 l 545 288 q 315 152 431 201 q 307 149 312 152 l 307 152 q 380 399 336 284 q 241 374 304 374 q 76 488 183 374 q 0 700 0 581 q 76 933 0 817 q 241 1015 143 1015 l 247 1015 q 49 1256 111 1158 l 54 1256 q 345 1210 192 1256 l 345 1213 q 336 1275 336 1238 l 336 1313 q 499 1495 382 1423 q 659 1535 572 1535 m 391 1294 q 600 936 391 1106 l 648 903 q 743 936 686 936 q 784 930 754 936 q 922 1286 922 1155 q 779 1454 922 1406 q 659 1478 714 1478 l 651 1478 q 391 1299 497 1478 l 391 1294 m 860 947 l 863 947 q 1088 1169 972 1097 q 1128 1291 1101 1169 q 1139 1351 1139 1345 q 968 1196 1078 1310 q 868 958 958 1126 q 860 947 864 958 m 168 1191 q 345 1004 219 1120 q 494 949 424 985 l 494 952 q 363 1139 406 1040 q 168 1191 224 1191 m 871 863 q 892 779 892 827 l 892 768 q 1080 665 986 692 q 1232 635 1154 635 l 1240 635 q 1386 670 1329 635 q 1465 876 1465 778 q 1318 1131 1465 1011 q 1240 1158 1274 1158 l 1226 1158 q 871 863 1087 1158 m 57 697 l 57 692 q 222 439 57 545 q 244 431 236 431 q 594 629 430 431 q 632 684 618 659 q 591 779 591 724 l 591 789 q 594 830 591 803 q 266 958 378 958 l 241 958 q 81 817 128 958 q 57 697 57 754 m 646 787 q 681 716 646 752 q 743 692 713 692 q 836 784 836 710 q 768 873 836 846 q 738 879 757 879 q 659 830 692 879 q 646 787 651 817 m 860 692 q 1085 505 939 648 q 1305 426 1272 426 q 1194 578 1267 497 q 1036 616 1116 589 q 873 708 951 653 q 860 692 870 708 m 600 282 q 651 125 610 135 q 846 54 747 54 q 1104 206 982 54 q 1128 285 1128 251 q 865 618 1128 422 q 814 654 832 643 q 738 632 800 643 q 600 282 600 449 m 635 589 q 488 450 555 492 q 448 410 448 435 q 393 258 426 364 l 396 258 q 553 372 453 284 q 637 589 553 438 l 635 589 z "},"v":{"ha":1588,"x_min":0,"x_max":1519,"o":"m 757 1519 l 773 1519 q 917 1413 884 1519 q 928 1326 928 1363 q 865 1020 928 1211 l 865 1017 l 868 1017 q 952 1169 887 1065 q 1175 1348 1076 1348 l 1194 1348 q 1340 1242 1271 1348 q 1354 1183 1354 1208 q 1020 871 1354 1038 l 1020 868 l 1023 868 q 1324 928 1202 928 q 1511 819 1472 928 q 1519 762 1519 791 l 1519 746 q 1424 605 1519 644 q 1329 591 1367 591 q 1020 654 1210 591 l 1017 654 l 1017 651 q 1169 567 1065 632 q 1348 345 1348 444 l 1348 331 q 1242 179 1348 248 q 1183 165 1208 165 q 865 510 1036 165 l 863 510 l 863 507 q 928 190 928 313 q 830 8 928 47 q 773 0 802 0 l 762 0 q 591 201 591 0 q 651 496 591 314 l 651 499 l 648 499 q 334 165 481 165 q 182 279 247 165 q 171 331 171 306 l 171 345 q 448 624 171 471 q 502 651 448 628 l 502 654 l 499 654 q 190 591 309 591 q 8 689 47 591 q 0 746 0 718 l 0 762 q 125 920 0 886 q 198 928 173 928 q 496 868 315 928 l 499 868 l 499 871 q 165 1185 165 1038 q 290 1343 165 1278 q 326 1348 315 1348 l 345 1348 q 646 1031 481 1348 l 646 1028 l 648 1028 l 648 1031 q 591 1321 591 1207 q 700 1511 591 1473 q 757 1519 728 1519 m 648 1316 q 746 928 648 1186 l 768 928 q 817 1061 785 955 q 871 1332 871 1221 q 776 1462 871 1462 l 757 1462 q 648 1316 648 1462 m 222 1183 q 393 996 222 1109 q 635 871 490 932 q 648 890 648 885 q 483 1188 587 1040 q 342 1291 393 1291 l 328 1291 q 228 1210 279 1291 q 222 1183 222 1190 m 871 884 l 887 871 q 1196 1044 1062 946 q 1297 1185 1297 1131 q 1207 1289 1297 1240 q 1183 1291 1192 1291 q 901 955 1064 1291 q 871 884 871 895 m 57 762 l 57 743 q 193 648 57 648 q 591 749 332 648 l 591 773 q 198 871 336 871 q 57 762 57 871 m 646 757 q 713 656 646 698 q 760 646 749 646 q 846 689 806 646 q 873 757 866 711 q 792 865 873 829 q 757 871 765 871 q 651 792 691 871 q 646 757 651 789 m 928 773 l 928 751 q 1058 703 938 741 q 1332 648 1223 648 q 1459 722 1441 648 q 1462 743 1462 732 l 1462 765 q 1316 871 1462 871 q 928 773 1185 871 m 228 336 q 309 228 228 277 q 336 222 330 222 q 486 339 394 222 q 648 632 572 456 l 629 648 q 328 480 459 577 q 228 336 228 397 m 887 648 q 871 632 887 644 q 1036 334 934 480 q 1185 222 1126 222 q 1280 296 1230 222 q 1291 336 1291 313 l 1291 342 q 1050 572 1291 430 q 887 648 965 616 m 648 195 q 705 68 648 101 q 754 57 735 57 l 776 57 q 871 193 871 57 q 770 591 871 332 l 751 591 q 697 448 741 591 q 648 195 648 304 z "},"w":{"ha":1583,"x_min":0,"x_max":1522,"o":"m 762 1519 l 784 1519 q 1039 1397 913 1519 l 1042 1397 q 1302 1294 1177 1397 q 1405 1042 1405 1189 l 1405 1020 q 1522 746 1522 880 q 1397 480 1522 610 l 1397 475 q 1316 241 1397 364 q 1028 114 1209 114 q 781 0 910 0 l 773 0 q 502 114 635 0 l 491 114 q 136 391 216 114 q 119 488 127 427 q 0 749 0 603 q 114 1017 0 882 l 114 1028 q 407 1389 114 1313 q 488 1400 455 1397 q 496 1397 494 1397 q 637 1492 547 1452 q 762 1519 707 1519 m 567 1383 q 684 1275 635 1356 q 760 936 760 1116 l 762 936 q 873 1326 762 1177 q 963 1386 926 1378 q 773 1465 873 1465 q 567 1383 673 1465 m 171 1031 l 171 1001 q 293 871 171 957 q 572 798 419 798 l 613 798 q 681 890 629 855 q 705 903 705 899 q 643 1229 705 1078 q 486 1343 585 1343 q 296 1283 406 1343 q 171 1031 171 1195 m 817 901 q 895 830 850 892 q 906 798 906 801 l 949 798 q 1329 960 1189 798 q 1351 1025 1351 980 q 1177 1308 1351 1227 q 1034 1343 1088 1343 q 833 1080 882 1343 q 817 901 817 987 m 127 947 q 57 754 57 836 l 57 743 q 130 559 57 648 l 130 556 l 155 597 q 317 713 193 669 q 461 749 376 735 l 461 751 q 236 838 366 760 q 127 947 176 885 m 1389 947 q 1166 779 1320 840 q 1055 751 1085 751 l 1055 749 q 1248 697 1166 732 q 1386 559 1360 640 l 1386 556 q 1465 746 1465 646 q 1389 947 1465 845 m 665 760 q 738 670 665 695 q 760 667 749 667 q 852 741 828 667 q 854 760 854 751 q 773 854 854 830 l 757 854 q 667 781 694 854 q 665 760 665 766 m 179 494 l 179 486 q 282 241 179 354 q 486 171 371 171 l 524 171 q 678 347 606 203 q 724 616 724 454 l 722 616 q 648 659 692 619 q 618 705 625 688 q 309 651 463 705 q 179 494 179 591 m 901 705 q 822 624 876 647 q 798 616 804 616 l 798 581 q 968 184 798 322 q 996 171 986 171 l 1042 171 q 1294 315 1207 171 q 1343 488 1343 412 q 1058 692 1343 644 q 901 705 970 703 m 760 415 q 692 252 735 319 q 575 133 632 167 l 575 130 q 762 57 675 57 l 784 57 q 952 122 863 57 l 955 127 q 770 382 833 195 q 762 415 762 402 l 760 415 z "},"x":{"ha":1604,"x_min":0,"x_max":1519,"o":"m 776 1519 q 865 1221 822 1413 q 884 1072 879 1144 q 1107 1223 1004 1187 q 1308 1286 1265 1286 l 1308 1283 q 1175 1031 1263 1179 q 1069 892 1118 950 l 1074 892 q 1519 746 1297 892 l 1519 743 q 1077 637 1234 637 l 1074 632 q 1202 464 1147 564 q 1289 212 1249 372 l 1286 212 q 1009 361 1150 269 q 892 450 929 419 q 822 103 892 345 q 781 0 791 12 q 635 448 635 224 q 342 252 503 335 q 239 206 243 206 l 239 209 q 298 404 266 326 q 453 629 349 526 l 448 629 q 0 735 291 629 q 111 803 3 743 q 429 884 282 884 l 448 884 q 293 1104 350 1002 q 206 1280 224 1236 l 212 1280 q 483 1183 313 1265 q 629 1069 546 1147 l 627 1085 q 776 1519 627 1295 m 684 1093 q 757 860 684 966 l 773 860 q 789 911 778 860 l 827 998 l 827 1047 q 765 1383 827 1177 q 711 1259 744 1358 q 684 1093 684 1169 m 830 830 q 849 806 839 826 q 1104 1031 985 852 q 1204 1199 1154 1102 l 1202 1199 q 1017 1112 1115 1172 q 838 873 884 1021 q 830 830 830 848 m 312 1191 q 453 966 368 1081 q 662 806 591 806 q 684 838 684 835 q 581 1036 675 924 q 366 1175 474 1137 q 312 1191 328 1191 m 863 751 l 863 746 q 914 730 863 741 q 1001 692 997 692 l 1042 692 q 1383 754 1172 692 l 1383 760 q 1099 836 1221 836 l 1090 836 q 971 803 995 836 q 863 751 895 755 m 136 751 q 288 708 136 742 q 491 684 393 684 l 521 684 q 591 716 525 684 q 651 738 651 734 l 651 741 q 597 765 651 747 l 513 819 q 437 827 475 827 l 418 827 q 136 751 296 827 m 705 754 q 754 705 713 705 l 757 705 q 806 749 806 714 l 806 757 q 754 806 806 797 q 705 757 705 793 l 705 754 m 838 686 q 808 662 825 670 q 1202 315 866 490 q 1088 537 1160 437 q 911 670 989 644 q 838 686 869 686 m 326 309 q 613 505 473 382 q 713 656 713 610 l 675 681 q 507 602 622 681 q 380 442 421 521 q 326 309 326 325 m 762 618 q 700 513 761 597 q 692 423 692 467 q 768 136 692 298 l 773 136 q 836 477 836 347 l 836 502 q 787 572 836 511 q 762 618 766 618 z "},"y":{"ha":1642,"x_min":0,"x_max":1573,"o":"m 681 1576 q 781 1565 737 1576 q 890 1576 834 1576 q 1286 1506 1122 1576 q 1375 1381 1375 1449 l 1375 1378 q 1535 1204 1480 1378 q 1573 890 1573 1040 q 1563 784 1573 823 q 1573 678 1573 743 q 1508 298 1573 465 q 1375 198 1452 198 l 1375 195 q 1313 90 1375 139 q 1158 27 1262 52 q 887 0 1000 0 q 784 11 827 0 q 678 0 736 0 q 304 62 473 0 q 198 198 198 121 q 33 399 84 198 q 0 684 0 555 q 11 784 0 729 q 0 895 0 838 q 54 1251 0 1080 q 198 1378 111 1378 q 369 1535 198 1483 q 681 1576 525 1576 m 252 1364 q 678 906 252 1213 q 789 949 721 949 q 895 906 850 949 q 1321 1367 1321 1210 q 963 1516 1321 1491 q 890 1519 943 1519 l 871 1519 l 871 1516 q 890 1462 890 1491 l 890 1449 q 800 1283 890 1385 q 751 1245 770 1245 l 749 1245 q 659 1370 713 1245 q 646 1432 651 1385 q 681 1519 646 1476 l 675 1519 q 328 1462 486 1519 q 252 1364 252 1421 m 703 1432 q 754 1316 703 1380 q 833 1449 833 1409 l 833 1459 q 776 1506 833 1497 q 703 1432 703 1485 m 57 884 l 57 871 q 119 892 90 892 q 328 765 206 892 l 331 751 l 331 749 q 203 659 331 713 q 149 648 176 648 l 136 648 q 57 681 100 648 l 57 675 q 119 317 57 475 q 198 255 161 255 l 203 255 q 304 426 212 314 q 551 648 444 573 q 640 716 639 711 q 624 789 624 755 q 643 863 624 823 q 347 1101 525 937 q 203 1321 208 1255 l 198 1321 q 92 1180 132 1321 q 57 884 57 1036 m 1370 1321 q 1275 1156 1367 1270 q 1047 947 1143 1015 l 933 860 l 933 857 q 949 784 949 824 q 933 713 949 757 q 1229 472 1053 635 q 1370 260 1356 332 l 1370 255 l 1375 255 q 1489 423 1449 255 q 1516 673 1516 568 l 1516 681 q 1438 648 1475 648 l 1424 648 q 1248 732 1349 648 l 1242 751 q 1364 863 1246 787 q 1457 892 1415 892 q 1516 871 1483 892 l 1516 895 q 1451 1264 1516 1116 q 1375 1321 1412 1321 l 1370 1321 m 681 787 q 757 686 681 715 q 787 681 768 681 q 887 757 858 681 q 892 787 892 768 q 798 892 892 869 l 784 892 q 681 798 705 892 l 681 787 m 71 784 q 136 705 89 705 l 149 705 q 260 754 197 705 q 117 836 170 836 q 71 784 86 836 m 1313 751 q 1424 705 1383 705 l 1438 705 q 1506 781 1482 705 q 1454 836 1489 836 q 1313 751 1402 836 m 252 212 q 502 71 252 104 q 675 57 606 57 l 681 57 q 646 144 646 100 q 730 326 646 220 l 749 331 l 751 331 q 863 209 783 330 q 890 127 890 159 l 890 114 q 871 60 890 85 l 871 57 l 898 57 q 1213 100 1048 57 q 1321 212 1321 141 q 1147 469 1321 305 q 895 667 985 615 q 784 624 850 624 q 675 667 728 624 q 434 475 576 604 q 252 212 252 307 m 751 260 q 703 141 703 190 q 779 68 703 93 q 833 117 833 83 l 833 127 q 751 260 833 171 z "},"z":{"ha":1563,"x_min":0,"x_max":1519,"o":"m 757 1519 l 762 1519 q 871 1318 833 1519 l 876 1318 q 1034 1462 971 1462 l 1042 1462 q 1096 1392 1083 1462 l 1096 1337 q 1085 1242 1096 1301 q 1259 1313 1193 1313 q 1313 1253 1313 1313 q 1210 1039 1313 1181 q 1348 1055 1278 1055 l 1351 1055 q 1478 1012 1451 1055 l 1481 998 l 1481 987 q 1370 860 1481 940 q 1519 762 1519 822 l 1519 757 q 1318 648 1519 686 l 1318 643 q 1462 486 1462 548 l 1462 477 q 1392 423 1462 436 l 1337 423 q 1242 434 1301 423 q 1313 260 1313 326 q 1253 206 1313 206 q 1039 309 1181 206 q 1055 171 1055 241 l 1055 168 q 993 38 1055 38 l 987 38 q 860 149 940 38 q 762 0 822 0 l 757 0 q 648 201 686 0 l 643 201 q 486 57 548 57 l 477 57 q 423 127 436 57 l 423 182 q 434 277 423 218 q 260 206 326 206 q 206 266 206 206 q 309 480 206 338 q 171 464 241 464 l 168 464 q 41 507 68 464 l 38 521 l 38 532 q 149 659 38 579 q 0 757 0 697 l 0 762 q 201 871 0 833 l 201 876 q 57 1034 57 971 l 57 1042 q 127 1096 57 1083 l 182 1096 q 277 1085 218 1096 q 206 1259 206 1193 q 266 1313 206 1313 q 480 1210 338 1313 q 464 1348 464 1278 l 464 1351 q 526 1481 464 1481 l 532 1481 q 659 1370 579 1481 q 757 1519 697 1519 m 700 1297 q 770 1115 748 1201 l 773 1115 l 825 1237 q 773 1443 825 1324 l 760 1457 q 705 1326 731 1430 q 700 1297 704 1297 m 532 1421 q 521 1359 521 1394 l 521 1340 q 640 936 521 1174 q 719 863 643 926 l 719 865 q 738 1012 719 916 q 605 1348 715 1154 q 532 1421 545 1421 m 776 868 l 776 854 q 814 838 800 849 l 817 838 q 944 1023 898 920 q 1042 1356 1042 1225 q 1031 1402 1038 1402 q 917 1280 981 1375 q 776 868 776 1029 m 263 1256 q 372 1058 273 1178 q 553 982 467 1027 q 502 1115 529 1038 q 263 1256 334 1256 m 982 966 q 1115 1017 1038 990 q 1256 1256 1256 1186 q 1058 1147 1173 1244 q 982 966 1027 1053 m 117 1031 q 486 806 205 901 q 651 776 586 776 l 665 776 q 681 814 670 800 l 681 817 q 464 960 583 911 q 163 1042 279 1042 q 117 1031 117 1038 m 863 800 l 865 800 q 1012 781 916 800 q 1256 863 1065 784 q 1416 977 1347 905 l 1421 987 q 1359 998 1394 998 l 1340 998 q 936 879 1173 998 q 863 800 926 876 m 62 760 q 184 708 90 731 q 222 700 222 703 q 404 770 318 748 l 404 773 l 282 825 l 279 825 q 76 773 184 822 q 62 760 62 761 m 1115 749 l 1115 746 l 1237 694 q 1438 746 1402 714 q 1457 760 1457 753 q 1326 814 1433 787 q 1297 819 1297 815 q 1115 749 1201 771 m 722 762 l 722 757 q 757 722 730 722 l 762 722 q 798 757 798 730 l 798 762 q 762 798 789 798 l 757 798 q 722 762 722 789 m 854 743 q 838 705 849 720 l 838 703 q 1044 564 937 608 q 1356 477 1236 477 q 1402 488 1402 481 q 1034 713 1314 619 q 868 743 933 743 l 854 743 m 98 532 q 163 521 130 521 l 176 521 q 583 640 345 521 q 656 719 593 643 l 654 719 q 507 738 604 719 q 279 665 465 738 q 114 553 172 614 q 98 532 108 552 m 477 163 q 488 117 481 117 q 665 358 581 176 q 743 651 743 539 l 743 665 q 705 681 720 670 l 703 681 q 559 464 602 574 q 477 163 477 279 m 800 656 l 800 654 q 781 507 800 604 q 914 171 802 366 q 987 98 974 98 q 998 163 998 130 l 998 176 q 879 583 998 346 q 800 656 876 593 m 263 263 q 461 372 341 273 q 537 553 493 467 q 404 502 481 529 q 263 263 263 334 m 966 537 q 1017 404 990 481 q 1251 263 1158 281 l 1253 263 q 1256 266 1253 266 q 1147 461 1246 341 q 966 537 1053 493 m 746 404 l 694 282 l 694 279 q 746 76 694 197 q 760 62 757 62 q 811 184 788 90 q 819 222 816 222 q 749 404 771 318 l 746 404 z "},"{":{"ha":688,"x_min":0,"x_max":0,"o":""},"|":{"ha":688,"x_min":0,"x_max":0,"o":""},"}":{"ha":688,"x_min":0,"x_max":0,"o":""},"~":{"ha":688,"x_min":0,"x_max":0,"o":""},"":{"ha":456,"x_min":0,"x_max":0,"o":""},"":{"ha":772,"x_min":0,"x_max":0,"o":""},"":{"ha":688,"x_min":0,"x_max":0,"o":""},"":{"ha":688,"x_min":0,"x_max":0,"o":""},"":{"ha":856,"x_min":0,"x_max":0,"o":""},"":{"ha":688,"x_min":0,"x_max":0,"o":""},"":{"ha":688,"x_min":0,"x_max":0,"o":""},"":{"ha":694,"x_min":0,"x_max":0,"o":""},"":{"ha":1135,"x_min":0,"x_max":0,"o":""},"":{"ha":439,"x_min":0,"x_max":0,"o":""},"":{"ha":640,"x_min":0,"x_max":0,"o":""},"":{"ha":688,"x_min":0,"x_max":0,"o":""},"":{"ha":1135,"x_min":0,"x_max":0,"o":""},"":{"ha":454,"x_min":0,"x_max":0,"o":""},"":{"ha":457,"x_min":0,"x_max":0,"o":""},"":{"ha":688,"x_min":0,"x_max":0,"o":""},"":{"ha":688,"x_min":0,"x_max":0,"o":""},"":{"ha":688,"x_min":0,"x_max":0,"o":""},"":{"ha":694,"x_min":0,"x_max":0,"o":""},"":{"ha":800,"x_min":0,"x_max":0,"o":""},"":{"ha":694,"x_min":0,"x_max":0,"o":""},"":{"ha":345,"x_min":0,"x_max":0,"o":""},"":{"ha":694,"x_min":0,"x_max":0,"o":""},"":{"ha":688,"x_min":0,"x_max":0,"o":""},"":{"ha":487,"x_min":0,"x_max":0,"o":""},"":{"ha":640,"x_min":0,"x_max":0,"o":""},"":{"ha":1158,"x_min":0,"x_max":0,"o":""},"":{"ha":1332,"x_min":0,"x_max":0,"o":""},"":{"ha":1158,"x_min":0,"x_max":0,"o":""},"":{"ha":507,"x_min":0,"x_max":0,"o":""},"":{"ha":1044,"x_min":0,"x_max":0,"o":""},"":{"ha":1044,"x_min":0,"x_max":0,"o":""},"":{"ha":1044,"x_min":0,"x_max":0,"o":""},"":{"ha":1044,"x_min":0,"x_max":0,"o":""},"":{"ha":1044,"x_min":0,"x_max":0,"o":""},"":{"ha":1044,"x_min":0,"x_max":0,"o":""},"":{"ha":1436,"x_min":0,"x_max":0,"o":""},"":{"ha":949,"x_min":0,"x_max":0,"o":""},"":{"ha":781,"x_min":0,"x_max":0,"o":""},"":{"ha":781,"x_min":0,"x_max":0,"o":""},"":{"ha":781,"x_min":0,"x_max":0,"o":""},"":{"ha":781,"x_min":0,"x_max":0,"o":""},"":{"ha":446,"x_min":0,"x_max":0,"o":""},"":{"ha":446,"x_min":0,"x_max":0,"o":""},"":{"ha":446,"x_min":0,"x_max":0,"o":""},"":{"ha":446,"x_min":0,"x_max":0,"o":""},"":{"ha":1029,"x_min":0,"x_max":0,"o":""},"":{"ha":1054,"x_min":0,"x_max":0,"o":""},"":{"ha":1095,"x_min":0,"x_max":0,"o":""},"":{"ha":1095,"x_min":0,"x_max":0,"o":""},"":{"ha":1095,"x_min":0,"x_max":0,"o":""},"":{"ha":1095,"x_min":0,"x_max":0,"o":""},"":{"ha":1095,"x_min":0,"x_max":0,"o":""},"":{"ha":688,"x_min":0,"x_max":0,"o":""},"":{"ha":1095,"x_min":0,"x_max":0,"o":""},"":{"ha":1018,"x_min":0,"x_max":0,"o":""},"":{"ha":1018,"x_min":0,"x_max":0,"o":""},"":{"ha":1018,"x_min":0,"x_max":0,"o":""},"":{"ha":1018,"x_min":0,"x_max":0,"o":""},"":{"ha":836,"x_min":0,"x_max":0,"o":""},"":{"ha":760,"x_min":0,"x_max":0,"o":""},"":{"ha":848,"x_min":0,"x_max":0,"o":""},"":{"ha":625,"x_min":0,"x_max":0,"o":""},"":{"ha":625,"x_min":0,"x_max":0,"o":""},"":{"ha":625,"x_min":0,"x_max":0,"o":""},"":{"ha":625,"x_min":0,"x_max":0,"o":""},"":{"ha":625,"x_min":0,"x_max":0,"o":""},"":{"ha":625,"x_min":0,"x_max":0,"o":""},"":{"ha":986,"x_min":0,"x_max":0,"o":""},"":{"ha":614,"x_min":0,"x_max":0,"o":""},"":{"ha":616,"x_min":0,"x_max":0,"o":""},"":{"ha":616,"x_min":0,"x_max":0,"o":""},"":{"ha":616,"x_min":0,"x_max":0,"o":""},"":{"ha":616,"x_min":0,"x_max":0,"o":""},"":{"ha":349,"x_min":0,"x_max":0,"o":""},"":{"ha":349,"x_min":0,"x_max":0,"o":""},"":{"ha":349,"x_min":0,"x_max":0,"o":""},"":{"ha":349,"x_min":0,"x_max":0,"o":""},"":{"ha":772,"x_min":0,"x_max":0,"o":""},"":{"ha":751,"x_min":0,"x_max":0,"o":""},"":{"ha":685,"x_min":0,"x_max":0,"o":""},"":{"ha":685,"x_min":0,"x_max":0,"o":""},"":{"ha":685,"x_min":0,"x_max":0,"o":""},"":{"ha":685,"x_min":0,"x_max":0,"o":""},"":{"ha":685,"x_min":0,"x_max":0,"o":""},"":{"ha":688,"x_min":0,"x_max":0,"o":""},"":{"ha":685,"x_min":0,"x_max":0,"o":""},"":{"ha":718,"x_min":0,"x_max":0,"o":""},"":{"ha":718,"x_min":0,"x_max":0,"o":""},"":{"ha":718,"x_min":0,"x_max":0,"o":""},"":{"ha":718,"x_min":0,"x_max":0,"o":""},"":{"ha":589,"x_min":0,"x_max":0,"o":""},"":{"ha":685,"x_min":0,"x_max":0,"o":""},"":{"ha":589,"x_min":0,"x_max":0,"o":""},"":{"ha":349,"x_min":0,"x_max":0,"o":""},"":{"ha":694,"x_min":0,"x_max":0,"o":""},"":{"ha":694,"x_min":0,"x_max":0,"o":""},"":{"ha":694,"x_min":0,"x_max":0,"o":""},"":{"ha":694,"x_min":0,"x_max":0,"o":""},"":{"ha":694,"x_min":0,"x_max":0,"o":""},"":{"ha":694,"x_min":0,"x_max":0,"o":""},"":{"ha":694,"x_min":0,"x_max":0,"o":""},"":{"ha":694,"x_min":0,"x_max":0,"o":""},"":{"ha":694,"x_min":0,"x_max":0,"o":""},"":{"ha":751,"x_min":0,"x_max":0,"o":""},"":{"ha":1389,"x_min":0,"x_max":0,"o":""},"":{"ha":378,"x_min":0,"x_max":0,"o":""},"":{"ha":378,"x_min":0,"x_max":0,"o":""},"":{"ha":378,"x_min":0,"x_max":0,"o":""},"":{"ha":617,"x_min":0,"x_max":0,"o":""},"":{"ha":617,"x_min":0,"x_max":0,"o":""},"":{"ha":617,"x_min":0,"x_max":0,"o":""},"":{"ha":688,"x_min":0,"x_max":0,"o":""},"":{"ha":688,"x_min":0,"x_max":0,"o":""},"":{"ha":694,"x_min":0,"x_max":0,"o":""},"":{"ha":1389,"x_min":0,"x_max":0,"o":""},"":{"ha":428,"x_min":0,"x_max":0,"o":""},"":{"ha":428,"x_min":0,"x_max":0,"o":""},"":{"ha":232,"x_min":0,"x_max":0,"o":""},"":{"ha":688,"x_min":0,"x_max":0,"o":""},"":{"ha":688,"x_min":0,"x_max":0,"o":""},"":{"ha":1375,"x_min":0,"x_max":0,"o":""},"":{"ha":688,"x_min":0,"x_max":0,"o":""},"":{"ha":1540,"x_min":0,"x_max":0,"o":""},"":{"ha":1015,"x_min":0,"x_max":0,"o":""},"":{"ha":688,"x_min":0,"x_max":0,"o":""},"":{"ha":733,"x_min":0,"x_max":0,"o":""},"":{"ha":1027,"x_min":0,"x_max":0,"o":""},"":{"ha":818,"x_min":0,"x_max":0,"o":""},"":{"ha":688,"x_min":0,"x_max":0,"o":""},"":{"ha":688,"x_min":0,"x_max":0,"o":""},"":{"ha":688,"x_min":0,"x_max":0,"o":""},"":{"ha":451,"x_min":0,"x_max":0,"o":""},"":{"ha":688,"x_min":0,"x_max":0,"o":""},"":{"ha":688,"x_min":0,"x_max":0,"o":""},"":{"ha":688,"x_min":0,"x_max":0,"o":""},"":{"ha":728,"x_min":0,"x_max":0,"o":""},"":{"ha":733,"x_min":0,"x_max":0,"o":""}}}
